<?xml version="1.0" encoding="UTF-8" standalone="no"?>
<!DOCTYPE svg PUBLIC "-//W3C//DTD SVG 1.1//EN"
 "http://www.w3.org/Graphics/SVG/1.1/DTD/svg11.dtd">
<!-- Generated by graphviz version 14.1.2 (20260124.0452)
 -->
<!-- Title: アーキテクチャ図 Pages: 1 -->
<svg width="735pt" height="242pt"
 viewBox="0.00 0.00 735.00 242.00" xmlns="http://www.w3.org/2000/svg" xmlns:xlink="http://www.w3.org/1999/xlink">
<g id="graph0" class="graph" transform="scale(1 1) rotate(0) translate(4 238.25)">
<title>アーキテクチャ図</title>
<polygon fill="white" stroke="none" points="-4,4 -4,-238.25 731.12,-238.25 731.12,4 -4,4"/>
<text xml:space="preserve" text-anchor="middle" x="363.56" y="-4.95" font-family="Times New Roman,serif" font-size="14.00">アーキテクチャ図</text>
<g id="clust1" class="cluster">
<title>clusterArchitecture</title>
<polygon fill="lightyellow" stroke="#eedd82" points="8,-30.25 8,-226.25 367,-226.25 367,-30.25 8,-30.25"/>
</g>
<!-- com.example.demo.application -->
<g id="node1" class="node">
<title>com.example.demo.application</title>
<polygon fill="#eedd82" stroke="black" points="279.5,-146.25 176.5,-146.25 176.5,-142.25 172.5,-142.25 172.5,-138.25 176.5,-138.25 176.5,-118.25 172.5,-118.25 172.5,-114.25 176.5,-114.25 176.5,-110.25 279.5,-110.25 279.5,-146.25"/>
<polyline fill="none" stroke="black" points="176.5,-142.25 180.5,-142.25 180.5,-138.25 176.5,-138.25"/>
<polyline fill="none" stroke="black" points="176.5,-118.25 180.5,-118.25 180.5,-114.25 176.5,-114.25"/>
<text xml:space="preserve" text-anchor="middle" x="228" y="-120.5" font-family="Times New Roman,serif" font-size="20.00">application</text>
</g>
<!-- com.example.demo.domain -->
<g id="node2" class="node">
<title>com.example.demo.domain</title>
<polygon fill="#eedd82" stroke="black" points="199.62,-74.25 124.38,-74.25 124.38,-70.25 120.38,-70.25 120.38,-66.25 124.38,-66.25 124.38,-46.25 120.38,-46.25 120.38,-42.25 124.38,-42.25 124.38,-38.25 199.62,-38.25 199.62,-74.25"/>
<polyline fill="none" stroke="black" points="124.38,-70.25 128.38,-70.25 128.38,-66.25 124.38,-66.25"/>
<polyline fill="none" stroke="black" points="124.38,-46.25 128.38,-46.25 128.38,-42.25 124.38,-42.25"/>
<text xml:space="preserve" text-anchor="middle" x="162" y="-48.5" font-family="Times New Roman,serif" font-size="20.00">domain</text>
</g>
<!-- com.example.demo.application&#45;&gt;com.example.demo.domain -->
<g id="edge3" class="edge">
<title>com.example.demo.application&#45;&gt;com.example.demo.domain</title>
<path fill="none" stroke="black" d="M188.06,-110.08C188.06,-110.08 188.06,-86.18 188.06,-86.18"/>
<polygon fill="black" stroke="black" points="191.56,-86.18 188.06,-76.18 184.56,-86.18 191.56,-86.18"/>
</g>
<!-- org.springframework -->
<g id="node6" class="node">
<title>org.springframework</title>
<polygon fill="lightgrey" stroke="black" points="506.75,-74.25 375.25,-74.25 375.25,-70.25 371.25,-70.25 371.25,-66.25 375.25,-66.25 375.25,-46.25 371.25,-46.25 371.25,-42.25 375.25,-42.25 375.25,-38.25 506.75,-38.25 506.75,-74.25"/>
<polyline fill="none" stroke="black" points="375.25,-70.25 379.25,-70.25 379.25,-66.25 375.25,-66.25"/>
<polyline fill="none" stroke="black" points="375.25,-46.25 379.25,-46.25 379.25,-42.25 375.25,-42.25"/>
<text xml:space="preserve" text-anchor="middle" x="441" y="-51.2" font-family="Times New Roman,serif" font-size="14.00">org.springframework</text>
</g>
<!-- com.example.demo.application&#45;&gt;org.springframework -->
<g id="edge4" class="edge">
<title>com.example.demo.application&#45;&gt;org.springframework</title>
<path fill="none" stroke="black" d="M239.56,-110.03C239.56,-91.42 239.56,-65.25 239.56,-65.25 239.56,-65.25 363.25,-65.25 363.25,-65.25"/>
<polygon fill="black" stroke="black" points="363.25,-68.75 373.25,-65.25 363.25,-61.75 363.25,-68.75"/>
</g>
<!-- com.example.demo.infrastructure -->
<g id="node3" class="node">
<title>com.example.demo.infrastructure</title>
<polygon fill="#eedd82" stroke="black" points="158.25,-146.25 35.75,-146.25 35.75,-142.25 31.75,-142.25 31.75,-138.25 35.75,-138.25 35.75,-118.25 31.75,-118.25 31.75,-114.25 35.75,-114.25 35.75,-110.25 158.25,-110.25 158.25,-146.25"/>
<polyline fill="none" stroke="black" points="35.75,-142.25 39.75,-142.25 39.75,-138.25 35.75,-138.25"/>
<polyline fill="none" stroke="black" points="35.75,-118.25 39.75,-118.25 39.75,-114.25 35.75,-114.25"/>
<text xml:space="preserve" text-anchor="middle" x="97" y="-120.5" font-family="Times New Roman,serif" font-size="20.00">infrastructure</text>
</g>
<!-- com.example.demo.infrastructure&#45;&gt;com.example.demo.domain -->
<g id="edge12" class="edge">
<title>com.example.demo.infrastructure&#45;&gt;com.example.demo.domain</title>
<path fill="none" stroke="black" d="M135.67,-110.08C135.67,-110.08 135.67,-86.18 135.67,-86.18"/>
<polygon fill="black" stroke="black" points="139.17,-86.18 135.67,-76.18 132.17,-86.18 139.17,-86.18"/>
</g>
<!-- com.example.demo.infrastructure&#45;&gt;org.springframework -->
<g id="edge8" class="edge">
<title>com.example.demo.infrastructure&#45;&gt;org.springframework</title>
<path fill="none" stroke="black" d="M146.96,-109.83C146.96,-100.97 146.96,-92.25 146.96,-92.25 146.96,-92.25 385.28,-92.25 385.28,-92.25 385.28,-92.25 385.28,-86.19 385.28,-86.19"/>
<polygon fill="black" stroke="black" points="388.78,-86.19 385.28,-76.19 381.78,-86.19 388.78,-86.19"/>
</g>
<!-- com.example.demo.query -->
<g id="node4" class="node">
<title>com.example.demo.query</title>
<polygon fill="#eedd82" stroke="black" points="358.5,-146.25 297.5,-146.25 297.5,-142.25 293.5,-142.25 293.5,-138.25 297.5,-138.25 297.5,-118.25 293.5,-118.25 293.5,-114.25 297.5,-114.25 297.5,-110.25 358.5,-110.25 358.5,-146.25"/>
<polyline fill="none" stroke="black" points="297.5,-142.25 301.5,-142.25 301.5,-138.25 297.5,-138.25"/>
<polyline fill="none" stroke="black" points="297.5,-118.25 301.5,-118.25 301.5,-114.25 297.5,-114.25"/>
<text xml:space="preserve" text-anchor="middle" x="328" y="-120.5" font-family="Times New Roman,serif" font-size="20.00">query</text>
</g>
<!-- com.example.demo.query&#45;&gt;com.example.demo.domain -->
<g id="edge11" class="edge">
<title>com.example.demo.query&#45;&gt;com.example.demo.domain</title>
<path fill="none" stroke="black" d="M328,-109.87C328,-85.97 328,-47.25 328,-47.25 328,-47.25 211.6,-47.25 211.6,-47.25"/>
<polygon fill="black" stroke="black" points="211.6,-43.75 201.6,-47.25 211.6,-50.75 211.6,-43.75"/>
</g>
<!-- com.example.demo.query&#45;&gt;org.springframework -->
<g id="edge1" class="edge">
<title>com.example.demo.query&#45;&gt;org.springframework</title>
<path fill="none" stroke="black" d="M358.9,-128.25C376.59,-128.25 395.31,-128.25 395.31,-128.25 395.31,-128.25 395.31,-85.93 395.31,-85.93"/>
<polygon fill="black" stroke="black" points="398.81,-85.93 395.31,-75.93 391.81,-85.93 398.81,-85.93"/>
</g>
<!-- com.example.demo.webapi -->
<g id="node5" class="node">
<title>com.example.demo.webapi</title>
<polygon fill="#eedd82" stroke="black" points="358.5,-218.25 285.5,-218.25 285.5,-214.25 281.5,-214.25 281.5,-210.25 285.5,-210.25 285.5,-190.25 281.5,-190.25 281.5,-186.25 285.5,-186.25 285.5,-182.25 358.5,-182.25 358.5,-218.25"/>
<polyline fill="none" stroke="black" points="285.5,-214.25 289.5,-214.25 289.5,-210.25 285.5,-210.25"/>
<polyline fill="none" stroke="black" points="285.5,-190.25 289.5,-190.25 289.5,-186.25 285.5,-186.25"/>
<text xml:space="preserve" text-anchor="middle" x="322" y="-192.5" font-family="Times New Roman,serif" font-size="20.00">webapi</text>
</g>
<!-- com.example.demo.webapi&#45;&gt;com.example.demo.application -->
<g id="edge13" class="edge">
<title>com.example.demo.webapi&#45;&gt;com.example.demo.application</title>
<path fill="none" stroke="black" d="M289.5,-182.08C289.5,-160.75 289.5,-128.25 289.5,-128.25 289.5,-128.25 288.54,-128.25 288.54,-128.25"/>
<polygon fill="black" stroke="black" points="291.4,-124.75 281.4,-128.25 291.4,-131.75 291.4,-124.75"/>
</g>
<!-- com.example.demo.webapi&#45;&gt;com.example.demo.domain -->
<g id="edge9" class="edge">
<title>com.example.demo.webapi&#45;&gt;com.example.demo.domain</title>
<path fill="none" stroke="black" d="M293.5,-182.01C293.5,-143.26 293.5,-56.25 293.5,-56.25 293.5,-56.25 211.55,-56.25 211.55,-56.25"/>
<polygon fill="black" stroke="black" points="211.55,-52.75 201.55,-56.25 211.55,-59.75 211.55,-52.75"/>
</g>
<!-- com.example.demo.webapi&#45;&gt;com.example.demo.query -->
<g id="edge2" class="edge">
<title>com.example.demo.webapi&#45;&gt;com.example.demo.query</title>
<path fill="none" stroke="black" d="M328,-182.08C328,-182.08 328,-158.18 328,-158.18"/>
<polygon fill="black" stroke="black" points="331.5,-158.18 328,-148.18 324.5,-158.18 331.5,-158.18"/>
</g>
<!-- com.example.demo.webapi&#45;&gt;org.springframework -->
<g id="edge10" class="edge">
<title>com.example.demo.webapi&#45;&gt;org.springframework</title>
<path fill="none" stroke="black" d="M358.8,-191.25C381.13,-191.25 405.34,-191.25 405.34,-191.25 405.34,-191.25 405.34,-86.25 405.34,-86.25"/>
<polygon fill="black" stroke="black" points="408.84,-86.25 405.34,-76.25 401.84,-86.25 408.84,-86.25"/>
</g>
<!-- io.swagger -->
<g id="node7" class="node">
<title>io.swagger</title>
<polygon fill="lightgrey" stroke="black" points="490.62,-146.25 415.38,-146.25 415.38,-142.25 411.38,-142.25 411.38,-138.25 415.38,-138.25 415.38,-118.25 411.38,-118.25 411.38,-114.25 415.38,-114.25 415.38,-110.25 490.62,-110.25 490.62,-146.25"/>
<polyline fill="none" stroke="black" points="415.38,-142.25 419.38,-142.25 419.38,-138.25 415.38,-138.25"/>
<polyline fill="none" stroke="black" points="415.38,-118.25 419.38,-118.25 419.38,-114.25 415.38,-114.25"/>
<text xml:space="preserve" text-anchor="middle" x="453" y="-123.2" font-family="Times New Roman,serif" font-size="14.00">io.swagger</text>
</g>
<!-- com.example.demo.webapi&#45;&gt;io.swagger -->
<g id="edge5" class="edge">
<title>com.example.demo.webapi&#45;&gt;io.swagger</title>
<path fill="none" stroke="black" d="M358.84,-200.25C397.59,-200.25 453,-200.25 453,-200.25 453,-200.25 453,-157.93 453,-157.93"/>
<polygon fill="black" stroke="black" points="456.5,-157.93 453,-147.93 449.5,-157.93 456.5,-157.93"/>
</g>
<!-- jakarta.validation -->
<g id="node9" class="node">
<title>jakarta.validation</title>
<polygon fill="lightgrey" stroke="black" points="619.25,-146.25 508.75,-146.25 508.75,-142.25 504.75,-142.25 504.75,-138.25 508.75,-138.25 508.75,-118.25 504.75,-118.25 504.75,-114.25 508.75,-114.25 508.75,-110.25 619.25,-110.25 619.25,-146.25"/>
<polyline fill="none" stroke="black" points="508.75,-142.25 512.75,-142.25 512.75,-138.25 508.75,-138.25"/>
<polyline fill="none" stroke="black" points="508.75,-118.25 512.75,-118.25 512.75,-114.25 508.75,-114.25"/>
<text xml:space="preserve" text-anchor="middle" x="564" y="-123.2" font-family="Times New Roman,serif" font-size="14.00">jakarta.validation</text>
</g>
<!-- com.example.demo.webapi&#45;&gt;jakarta.validation -->
<g id="edge7" class="edge">
<title>com.example.demo.webapi&#45;&gt;jakarta.validation</title>
<path fill="none" stroke="black" d="M358.75,-209.25C426.45,-209.25 564,-209.25 564,-209.25 564,-209.25 564,-158.14 564,-158.14"/>
<polygon fill="black" stroke="black" points="567.5,-158.14 564,-148.14 560.5,-158.14 567.5,-158.14"/>
</g>
<!-- com.example -->
<g id="node8" class="node">
<title>com.example</title>
<polygon fill="lightgrey" stroke="black" points="727.12,-146.25 636.88,-146.25 636.88,-142.25 632.88,-142.25 632.88,-138.25 636.88,-138.25 636.88,-118.25 632.88,-118.25 632.88,-114.25 636.88,-114.25 636.88,-110.25 727.12,-110.25 727.12,-146.25"/>
<polyline fill="none" stroke="black" points="636.88,-142.25 640.88,-142.25 640.88,-138.25 636.88,-138.25"/>
<polyline fill="none" stroke="black" points="636.88,-118.25 640.88,-118.25 640.88,-114.25 636.88,-114.25"/>
<text xml:space="preserve" text-anchor="middle" x="682" y="-123.2" font-family="Times New Roman,serif" font-size="14.00">com.example</text>
</g>
<!-- com.example&#45;&gt;org.springframework -->
<g id="edge6" class="edge">
<title>com.example&#45;&gt;org.springframework</title>
<path fill="none" stroke="black" d="M682,-110.08C682,-88.75 682,-56.25 682,-56.25 682,-56.25 518.69,-56.25 518.69,-56.25"/>
<polygon fill="black" stroke="black" points="518.69,-52.75 508.69,-56.25 518.69,-59.75 518.69,-52.75"/>
</g>
</g>
</svg>
