<?xml version="1.0" encoding="UTF-8" standalone="no"?>
<!DOCTYPE svg PUBLIC "-//W3C//DTD SVG 1.1//EN"
 "http://www.w3.org/Graphics/SVG/1.1/DTD/svg11.dtd">
<!-- Generated by graphviz version 14.1.2 (20260124.0452)
 -->
<!-- Title: ビジネスルール関連図 Pages: 1 -->
<svg width="1766pt" height="437pt"
 viewBox="0.00 0.00 1766.00 437.00" xmlns="http://www.w3.org/2000/svg" xmlns:xlink="http://www.w3.org/1999/xlink">
<g id="graph0" class="graph" transform="scale(1 1) rotate(0) translate(4 432.88)">
<title>ビジネスルール関連図</title>
<polygon fill="white" stroke="none" points="-4,4 -4,-432.88 1762,-432.88 1762,4 -4,4"/>
<text xml:space="preserve" text-anchor="middle" x="879" y="-4.95" font-family="Times New Roman,serif" font-size="14.00">ビジネスルール関連図</text>
<g id="clust1" class="cluster">
<title>cluster_com.example.demo.domain.model.menu</title>
<polygon fill="lemonchiffon" stroke="#eedd82" stroke-width="2" points="8,-105 8,-341.62 606,-341.62 606,-105 8,-105"/>
<text xml:space="preserve" text-anchor="middle" x="307" y="-324.32" font-family="Times New Roman,serif" font-size="14.00">com.example.demo.domain.model.menu</text>
</g>
<g id="clust2" class="cluster">
<title>cluster_com.example.demo.domain.model.order</title>
<polygon fill="lemonchiffon" stroke="#eedd82" stroke-width="2" points="614,-182 614,-420.88 1402,-420.88 1402,-182 614,-182"/>
<text xml:space="preserve" text-anchor="middle" x="1008" y="-403.57" font-family="Times New Roman,serif" font-size="14.00">com.example.demo.domain.model.order</text>
</g>
<g id="clust3" class="cluster">
<title>cluster_com.example.demo.domain.type</title>
<polygon fill="lemonchiffon" stroke="#eedd82" stroke-width="2" points="1442,-30.25 1442,-262.38 1750,-262.38 1750,-30.25 1442,-30.25"/>
<text xml:space="preserve" text-anchor="middle" x="1596" y="-245.07" font-family="Times New Roman,serif" font-size="14.00">com.example.demo.domain.type</text>
</g>
<!-- com.example.demo.domain.model.menu.MenuCategory -->
<g id="node1" class="node">
<title>com.example.demo.domain.model.menu.MenuCategory</title>
<g id="a_node1"><a xlink:href="./domain.html#com.example.demo.domain.model.menu.MenuCategory" xlink:title="メニューカテゴリを表す列挙型\nMenuCategory">
<polygon fill="#eedd82" stroke="black" points="273.75,-152.88 16.25,-152.88 16.25,-114.12 273.75,-114.12 273.75,-152.88"/>
<text xml:space="preserve" text-anchor="middle" x="145" y="-135.57" font-family="Times New Roman,serif" font-size="14.00">メニューカテゴリを表す列挙型</text>
<text xml:space="preserve" text-anchor="middle" x="145" y="-121.33" font-family="Times New Roman,serif" font-size="14.00">MenuCategory</text>
</a>
</g>
</g>
<!-- com.example.demo.domain.model.menu.MenuItem -->
<g id="node2" class="node">
<title>com.example.demo.domain.model.menu.MenuItem</title>
<g id="a_node2"><a xlink:href="./domain.html#com.example.demo.domain.model.menu.MenuItem" xlink:title="メニュー項目を表すエンティティ\nMenuItem">
<polygon fill="#eedd82" stroke="black" points="438.38,-229.88 163.62,-229.88 163.62,-191.12 438.38,-191.12 438.38,-229.88"/>
<text xml:space="preserve" text-anchor="middle" x="301" y="-212.57" font-family="Times New Roman,serif" font-size="14.00">メニュー項目を表すエンティティ</text>
<text xml:space="preserve" text-anchor="middle" x="301" y="-198.32" font-family="Times New Roman,serif" font-size="14.00">MenuItem</text>
</a>
</g>
</g>
<!-- com.example.demo.domain.model.menu.MenuItem&#45;&gt;com.example.demo.domain.model.menu.MenuCategory -->
<g id="edge1" class="edge">
<title>com.example.demo.domain.model.menu.MenuItem&#45;&gt;com.example.demo.domain.model.menu.MenuCategory</title>
<path fill="none" stroke="black" d="M262.04,-190.77C241.47,-180.88 216.02,-168.65 194.12,-158.11"/>
<polygon fill="black" stroke="black" points="195.9,-155.09 185.37,-153.91 192.87,-161.4 195.9,-155.09"/>
</g>
<!-- com.example.demo.domain.model.menu.MenuItemId -->
<g id="node3" class="node">
<title>com.example.demo.domain.model.menu.MenuItemId</title>
<g id="a_node3"><a xlink:href="./domain.html#com.example.demo.domain.model.menu.MenuItemId" xlink:title="メニュー項目IDを表す値オブジェクト\nMenuItemId">
<polygon fill="#eedd82" stroke="black" points="598.12,-154 291.88,-154 291.88,-113 598.12,-113 598.12,-154"/>
<text xml:space="preserve" text-anchor="middle" x="445" y="-136.7" font-family="Times New Roman,serif" font-size="14.00">メニュー項目IDを表す値オブジェクト</text>
<text xml:space="preserve" text-anchor="middle" x="445" y="-120.2" font-family="Times New Roman,serif" font-size="14.00">MenuItemId</text>
</a>
</g>
</g>
<!-- com.example.demo.domain.model.menu.MenuItem&#45;&gt;com.example.demo.domain.model.menu.MenuItemId -->
<g id="edge2" class="edge">
<title>com.example.demo.domain.model.menu.MenuItem&#45;&gt;com.example.demo.domain.model.menu.MenuItemId</title>
<path fill="none" stroke="black" d="M336.97,-190.77C355.06,-181.35 377.23,-169.8 396.78,-159.62"/>
<polygon fill="black" stroke="black" points="398.13,-162.86 405.38,-155.14 394.89,-156.65 398.13,-162.86"/>
</g>
<!-- com.example.demo.domain.type.Money -->
<g id="node10" class="node">
<title>com.example.demo.domain.type.Money</title>
<g id="a_node10"><a xlink:href="./domain.html#com.example.demo.domain.type.Money" xlink:title="金額を表す値オブジェクト\nMoney">
<polygon fill="#eedd82" stroke="black" points="1673.5,-152.88 1450.5,-152.88 1450.5,-114.12 1673.5,-114.12 1673.5,-152.88"/>
<text xml:space="preserve" text-anchor="middle" x="1562" y="-135.57" font-family="Times New Roman,serif" font-size="14.00">金額を表す値オブジェクト</text>
<text xml:space="preserve" text-anchor="middle" x="1562" y="-121.33" font-family="Times New Roman,serif" font-size="14.00">Money</text>
</a>
</g>
</g>
<!-- com.example.demo.domain.model.menu.MenuItem&#45;&gt;com.example.demo.domain.type.Money -->
<g id="edge3" class="edge">
<title>com.example.demo.domain.model.menu.MenuItem&#45;&gt;com.example.demo.domain.type.Money</title>
<path fill="none" stroke="black" d="M438.58,-196.1C492.06,-191.2 553.85,-185.9 610,-182 907.18,-161.37 1257.15,-146.27 1438.72,-139.12"/>
<polygon fill="black" stroke="black" points="1438.8,-142.62 1448.65,-138.73 1438.52,-135.62 1438.8,-142.62"/>
</g>
<!-- com.example.demo.domain.model.menu.MenuItemRepository -->
<g id="node4" class="node">
<title>com.example.demo.domain.model.menu.MenuItemRepository</title>
<g id="a_node4"><a xlink:href="./domain.html#com.example.demo.domain.model.menu.MenuItemRepository" xlink:title="メニュー項目リポジトリインターフェース\nMenuItemRepository">
<polygon fill="#eedd82" stroke="black" points="472.88,-309.12 129.12,-309.12 129.12,-270.38 472.88,-270.38 472.88,-309.12"/>
<text xml:space="preserve" text-anchor="middle" x="301" y="-291.82" font-family="Times New Roman,serif" font-size="14.00">メニュー項目リポジトリインターフェース</text>
<text xml:space="preserve" text-anchor="middle" x="301" y="-277.57" font-family="Times New Roman,serif" font-size="14.00">MenuItemRepository</text>
</a>
</g>
</g>
<!-- com.example.demo.domain.model.menu.MenuItemRepository&#45;&gt;com.example.demo.domain.model.menu.MenuCategory -->
<g id="edge4" class="edge">
<title>com.example.demo.domain.model.menu.MenuItemRepository&#45;&gt;com.example.demo.domain.model.menu.MenuCategory</title>
<path fill="none" stroke="black" d="M166.6,-270.08C161.58,-267.8 157.59,-265.24 155,-262.38 131.24,-236.1 133.15,-193.1 138,-164.31"/>
<polygon fill="black" stroke="black" points="141.38,-165.26 139.83,-154.78 134.51,-163.94 141.38,-165.26"/>
</g>
<!-- com.example.demo.domain.model.menu.MenuItemRepository&#45;&gt;com.example.demo.domain.model.menu.MenuItem -->
<g id="edge5" class="edge">
<title>com.example.demo.domain.model.menu.MenuItemRepository&#45;&gt;com.example.demo.domain.model.menu.MenuItem</title>
<path fill="none" stroke="black" d="M301,-270.05C301,-261.57 301,-251.33 301,-241.8"/>
<polygon fill="black" stroke="black" points="304.5,-241.81 301,-231.81 297.5,-241.81 304.5,-241.81"/>
</g>
<!-- com.example.demo.domain.model.menu.MenuItemRepository&#45;&gt;com.example.demo.domain.model.menu.MenuItemId -->
<g id="edge6" class="edge">
<title>com.example.demo.domain.model.menu.MenuItemRepository&#45;&gt;com.example.demo.domain.model.menu.MenuItemId</title>
<path fill="none" stroke="black" d="M436.16,-270.07C440.88,-267.8 444.61,-265.24 447,-262.38 469.27,-235.72 463.58,-193.89 455.78,-165.38"/>
<polygon fill="black" stroke="black" points="459.15,-164.46 452.94,-155.88 452.45,-166.47 459.15,-164.46"/>
</g>
<!-- com.example.demo.domain.model.order.Order -->
<g id="node5" class="node">
<title>com.example.demo.domain.model.order.Order</title>
<g id="a_node5"><a xlink:href="./domain.html#com.example.demo.domain.model.order.Order" xlink:title="注文を表す集約ルートエンティティ\nOrder">
<polygon fill="#eedd82" stroke="black" points="1372,-309.12 1080,-309.12 1080,-270.38 1372,-270.38 1372,-309.12"/>
<text xml:space="preserve" text-anchor="middle" x="1226" y="-291.82" font-family="Times New Roman,serif" font-size="14.00">注文を表す集約ルートエンティティ</text>
<text xml:space="preserve" text-anchor="middle" x="1226" y="-277.57" font-family="Times New Roman,serif" font-size="14.00">Order</text>
</a>
</g>
</g>
<!-- com.example.demo.domain.model.order.OrderId -->
<g id="node6" class="node">
<title>com.example.demo.domain.model.order.OrderId</title>
<g id="a_node6"><a xlink:href="./domain.html#com.example.demo.domain.model.order.OrderId" xlink:title="注文IDを表す値オブジェクト\nOrderId">
<polygon fill="#eedd82" stroke="black" points="859.62,-231 622.38,-231 622.38,-190 859.62,-190 859.62,-231"/>
<text xml:space="preserve" text-anchor="middle" x="741" y="-213.7" font-family="Times New Roman,serif" font-size="14.00">注文IDを表す値オブジェクト</text>
<text xml:space="preserve" text-anchor="middle" x="741" y="-197.2" font-family="Times New Roman,serif" font-size="14.00">OrderId</text>
</a>
</g>
</g>
<!-- com.example.demo.domain.model.order.Order&#45;&gt;com.example.demo.domain.model.order.OrderId -->
<g id="edge7" class="edge">
<title>com.example.demo.domain.model.order.Order&#45;&gt;com.example.demo.domain.model.order.OrderId</title>
<path fill="none" stroke="black" d="M1079.83,-282.43C999.46,-278.06 908.29,-271.41 869,-262.38 842.95,-256.38 815.24,-245.92 792.29,-236.04"/>
<polygon fill="black" stroke="black" points="793.72,-232.84 783.15,-232.02 790.89,-239.25 793.72,-232.84"/>
</g>
<!-- com.example.demo.domain.model.order.OrderItem -->
<g id="node7" class="node">
<title>com.example.demo.domain.model.order.OrderItem</title>
<g id="a_node7"><a xlink:href="./domain.html#com.example.demo.domain.model.order.OrderItem" xlink:title="注文明細を表す値オブジェクト\nOrderItem">
<polygon fill="#eedd82" stroke="black" points="1393.75,-229.88 1136.25,-229.88 1136.25,-191.12 1393.75,-191.12 1393.75,-229.88"/>
<text xml:space="preserve" text-anchor="middle" x="1265" y="-212.57" font-family="Times New Roman,serif" font-size="14.00">注文明細を表す値オブジェクト</text>
<text xml:space="preserve" text-anchor="middle" x="1265" y="-198.32" font-family="Times New Roman,serif" font-size="14.00">OrderItem</text>
</a>
</g>
</g>
<!-- com.example.demo.domain.model.order.Order&#45;&gt;com.example.demo.domain.model.order.OrderItem -->
<g id="edge8" class="edge">
<title>com.example.demo.domain.model.order.Order&#45;&gt;com.example.demo.domain.model.order.OrderItem</title>
<path fill="none" stroke="black" d="M1235.44,-270.05C1239.91,-261.2 1245.35,-250.42 1250.34,-240.54"/>
<polygon fill="black" stroke="black" points="1253.45,-242.15 1254.83,-231.65 1247.2,-239 1253.45,-242.15"/>
</g>
<!-- com.example.demo.domain.model.order.OrderStatus -->
<g id="node9" class="node">
<title>com.example.demo.domain.model.order.OrderStatus</title>
<g id="a_node9"><a xlink:href="./domain.html#com.example.demo.domain.model.order.OrderStatus" xlink:title="注文ステータスを表す列挙型\nOrderStatus">
<polygon fill="#eedd82" stroke="black" points="1118.12,-229.88 877.88,-229.88 877.88,-191.12 1118.12,-191.12 1118.12,-229.88"/>
<text xml:space="preserve" text-anchor="middle" x="998" y="-212.57" font-family="Times New Roman,serif" font-size="14.00">注文ステータスを表す列挙型</text>
<text xml:space="preserve" text-anchor="middle" x="998" y="-198.32" font-family="Times New Roman,serif" font-size="14.00">OrderStatus</text>
</a>
</g>
</g>
<!-- com.example.demo.domain.model.order.Order&#45;&gt;com.example.demo.domain.model.order.OrderStatus -->
<g id="edge9" class="edge">
<title>com.example.demo.domain.model.order.Order&#45;&gt;com.example.demo.domain.model.order.OrderStatus</title>
<path fill="none" stroke="black" d="M1151.66,-269.94C1143.3,-267.53 1134.94,-264.99 1127,-262.38 1102.22,-254.22 1075.32,-243.85 1052.52,-234.61"/>
<polygon fill="black" stroke="black" points="1054,-231.44 1043.42,-230.89 1051.35,-237.92 1054,-231.44"/>
</g>
<!-- com.example.demo.domain.model.order.Order&#45;&gt;com.example.demo.domain.type.Money -->
<g id="edge10" class="edge">
<title>com.example.demo.domain.model.order.Order&#45;&gt;com.example.demo.domain.type.Money</title>
<path fill="none" stroke="black" d="M1372.49,-274.18C1385.79,-270.98 1396.64,-267.1 1403,-262.38 1434.73,-238.82 1412.13,-208.98 1441,-182 1451.58,-172.11 1464.45,-164.2 1477.81,-157.89"/>
<polygon fill="black" stroke="black" points="1478.95,-161.21 1486.7,-153.98 1476.13,-154.8 1478.95,-161.21"/>
</g>
<!-- com.example.demo.domain.type.TableNumber -->
<g id="node12" class="node">
<title>com.example.demo.domain.type.TableNumber</title>
<g id="a_node12"><a xlink:href="./domain.html#com.example.demo.domain.type.TableNumber" xlink:title="テーブル番号を表す値オブジェクト\nTableNumber">
<polygon fill="#eedd82" stroke="black" points="1742,-229.88 1450,-229.88 1450,-191.12 1742,-191.12 1742,-229.88"/>
<text xml:space="preserve" text-anchor="middle" x="1596" y="-212.57" font-family="Times New Roman,serif" font-size="14.00">テーブル番号を表す値オブジェクト</text>
<text xml:space="preserve" text-anchor="middle" x="1596" y="-198.32" font-family="Times New Roman,serif" font-size="14.00">TableNumber</text>
</a>
</g>
</g>
<!-- com.example.demo.domain.model.order.Order&#45;&gt;com.example.demo.domain.type.TableNumber -->
<g id="edge11" class="edge">
<title>com.example.demo.domain.model.order.Order&#45;&gt;com.example.demo.domain.type.TableNumber</title>
<path fill="none" stroke="black" d="M1372.32,-273.87C1393.79,-270.67 1415.54,-266.87 1436,-262.38 1469.09,-255.1 1505.11,-243.95 1534.58,-233.93"/>
<polygon fill="black" stroke="black" points="1535.38,-237.36 1543.7,-230.8 1533.1,-230.74 1535.38,-237.36"/>
</g>
<!-- com.example.demo.domain.model.order.OrderItem&#45;&gt;com.example.demo.domain.model.menu.MenuItemId -->
<g id="edge12" class="edge">
<title>com.example.demo.domain.model.order.OrderItem&#45;&gt;com.example.demo.domain.model.menu.MenuItemId</title>
<path fill="none" stroke="black" d="M1179.15,-190.64C1161.95,-187.35 1143.95,-184.27 1127,-182 951.18,-158.46 748.21,-146.21 609.71,-140.1"/>
<polygon fill="black" stroke="black" points="610.26,-136.62 600.11,-139.68 609.95,-143.61 610.26,-136.62"/>
</g>
<!-- com.example.demo.domain.model.order.OrderItem&#45;&gt;com.example.demo.domain.type.Money -->
<g id="edge13" class="edge">
<title>com.example.demo.domain.model.order.OrderItem&#45;&gt;com.example.demo.domain.type.Money</title>
<path fill="none" stroke="black" d="M1339.56,-190.67C1381.13,-180.17 1433.09,-167.05 1476.33,-156.13"/>
<polygon fill="black" stroke="black" points="1477.1,-159.55 1485.94,-153.71 1475.39,-152.76 1477.1,-159.55"/>
</g>
<!-- com.example.demo.domain.type.Quantity -->
<g id="node11" class="node">
<title>com.example.demo.domain.type.Quantity</title>
<g id="a_node11"><a xlink:href="./domain.html#com.example.demo.domain.type.Quantity" xlink:title="数量を表す値オブジェクト\nQuantity">
<polygon fill="#eedd82" stroke="black" points="1673.5,-77 1450.5,-77 1450.5,-38.25 1673.5,-38.25 1673.5,-77"/>
<text xml:space="preserve" text-anchor="middle" x="1562" y="-59.7" font-family="Times New Roman,serif" font-size="14.00">数量を表す値オブジェクト</text>
<text xml:space="preserve" text-anchor="middle" x="1562" y="-45.45" font-family="Times New Roman,serif" font-size="14.00">Quantity</text>
</a>
</g>
</g>
<!-- com.example.demo.domain.model.order.OrderItem&#45;&gt;com.example.demo.domain.type.Quantity -->
<g id="edge14" class="edge">
<title>com.example.demo.domain.model.order.OrderItem&#45;&gt;com.example.demo.domain.type.Quantity</title>
<path fill="none" stroke="black" d="M1293.32,-190.8C1327.62,-168.63 1387.56,-131.37 1442,-105 1459.48,-96.53 1478.93,-88.47 1496.99,-81.51"/>
<polygon fill="black" stroke="black" points="1498.21,-84.79 1506.32,-77.97 1495.73,-78.25 1498.21,-84.79"/>
</g>
<!-- com.example.demo.domain.model.order.OrderRepository -->
<g id="node8" class="node">
<title>com.example.demo.domain.model.order.OrderRepository</title>
<g id="a_node8"><a xlink:href="./domain.html#com.example.demo.domain.model.order.OrderRepository" xlink:title="注文リポジトリインターフェース\nOrderRepository">
<polygon fill="#eedd82" stroke="black" points="1238.38,-388.38 963.62,-388.38 963.62,-349.62 1238.38,-349.62 1238.38,-388.38"/>
<text xml:space="preserve" text-anchor="middle" x="1101" y="-371.07" font-family="Times New Roman,serif" font-size="14.00">注文リポジトリインターフェース</text>
<text xml:space="preserve" text-anchor="middle" x="1101" y="-356.82" font-family="Times New Roman,serif" font-size="14.00">OrderRepository</text>
</a>
</g>
</g>
<!-- com.example.demo.domain.model.order.OrderRepository&#45;&gt;com.example.demo.domain.model.order.Order -->
<g id="edge15" class="edge">
<title>com.example.demo.domain.model.order.OrderRepository&#45;&gt;com.example.demo.domain.model.order.Order</title>
<path fill="none" stroke="black" d="M1131.26,-349.3C1147.72,-339.13 1168.29,-326.42 1186.05,-315.44"/>
<polygon fill="black" stroke="black" points="1187.63,-318.58 1194.3,-310.34 1183.95,-312.62 1187.63,-318.58"/>
</g>
<!-- com.example.demo.domain.model.order.OrderRepository&#45;&gt;com.example.demo.domain.model.order.OrderId -->
<g id="edge16" class="edge">
<title>com.example.demo.domain.model.order.OrderRepository&#45;&gt;com.example.demo.domain.model.order.OrderId</title>
<path fill="none" stroke="black" d="M1043.24,-349.24C1036.38,-346.78 1029.51,-344.22 1023,-341.62 940.18,-308.62 846.71,-263.97 790.89,-236.48"/>
<polygon fill="black" stroke="black" points="792.45,-233.35 781.94,-232.06 789.35,-239.63 792.45,-233.35"/>
</g>
<!-- com.example.demo.domain.model.order.OrderRepository&#45;&gt;com.example.demo.domain.model.order.OrderStatus -->
<g id="edge17" class="edge">
<title>com.example.demo.domain.model.order.OrderRepository&#45;&gt;com.example.demo.domain.model.order.OrderStatus</title>
<path fill="none" stroke="black" d="M1077.92,-349.18C1075.46,-346.76 1073.09,-344.21 1071,-341.62 1045.25,-309.81 1023.47,-267.69 1010.58,-240.11"/>
<polygon fill="black" stroke="black" points="1013.9,-238.96 1006.55,-231.33 1007.54,-241.88 1013.9,-238.96"/>
</g>
<!-- com.example.demo.domain.model.order.OrderRepository&#45;&gt;com.example.demo.domain.type.TableNumber -->
<g id="edge18" class="edge">
<title>com.example.demo.domain.model.order.OrderRepository&#45;&gt;com.example.demo.domain.type.TableNumber</title>
<path fill="none" stroke="black" d="M1238.74,-360.77C1295.65,-356.59 1354.46,-350.39 1381,-341.62 1451.76,-318.25 1523.81,-268.14 1563.93,-237.37"/>
<polygon fill="black" stroke="black" points="1566,-240.2 1571.75,-231.3 1561.7,-234.67 1566,-240.2"/>
</g>
<!-- com.example.demo.domain.type.Money&#45;&gt;com.example.demo.domain.type.Quantity -->
<g id="edge19" class="edge">
<title>com.example.demo.domain.type.Money&#45;&gt;com.example.demo.domain.type.Quantity</title>
<path fill="none" stroke="black" d="M1562,-113.86C1562,-106.25 1562,-97.25 1562,-88.75"/>
<polygon fill="black" stroke="black" points="1565.5,-88.77 1562,-78.77 1558.5,-88.77 1565.5,-88.77"/>
</g>
</g>
</svg>
