<?xml version="1.0" encoding="UTF-8" standalone="no"?>
<!DOCTYPE svg PUBLIC "-//W3C//DTD SVG 1.1//EN"
 "http://www.w3.org/Graphics/SVG/1.1/DTD/svg11.dtd">
<!-- Generated by graphviz version 14.1.2 (20260124.0452)
 -->
<!-- Title: 集中ビジネスルールツリー図 Pages: 1 -->
<svg width="1369pt" height="591pt"
 viewBox="0.00 0.00 1369.00 591.00" xmlns="http://www.w3.org/2000/svg" xmlns:xlink="http://www.w3.org/1999/xlink">
<g id="graph0" class="graph" transform="scale(1 1) rotate(0) translate(4 586.5)">
<title>集中ビジネスルールツリー図</title>
<polygon fill="white" stroke="none" points="-4,4 -4,-586.5 1365.25,-586.5 1365.25,4 -4,4"/>
<text xml:space="preserve" text-anchor="middle" x="680.62" y="-4.95" font-family="Times New Roman,serif" font-size="14.00">集中ビジネスルールツリー図</text>
<!-- com.example.demo.domain.model.menu.MenuCategory -->
<g id="node1" class="node">
<title>com.example.demo.domain.model.menu.MenuCategory</title>
<g id="a_node1"><a xlink:href="./domain.html#com.example.demo.domain.model.menu.MenuCategory" xlink:title="メニューカテゴリを表す列挙型\nMenuCategory">
<polygon fill="#eedd82" stroke="black" points="884,-582.5 427,-582.5 427,-512.25 884,-512.25 884,-582.5"/>
<text xml:space="preserve" text-anchor="middle" x="655.5" y="-550" font-family="Times New Roman,serif" font-size="30.00">メニューカテゴリを表す列挙型</text>
<text xml:space="preserve" text-anchor="middle" x="655.5" y="-521.5" font-family="Times New Roman,serif" font-size="30.00">MenuCategory</text>
</a>
</g>
</g>
<!-- com.example.demo.domain.model.menu.MenuItem -->
<g id="node2" class="node">
<title>com.example.demo.domain.model.menu.MenuItem</title>
<g id="a_node2"><a xlink:href="./domain.html#com.example.demo.domain.model.menu.MenuItem" xlink:title="メニュー項目を表すエンティティ\nMenuItem">
<polygon fill="lemonchiffon" stroke="black" points="309.25,-475.75 34.5,-475.75 34.5,-437 309.25,-437 309.25,-475.75"/>
<text xml:space="preserve" text-anchor="middle" x="171.88" y="-458.45" font-family="Times New Roman,serif" font-size="14.00">メニュー項目を表すエンティティ</text>
<text xml:space="preserve" text-anchor="middle" x="171.88" y="-444.2" font-family="Times New Roman,serif" font-size="14.00">MenuItem</text>
</a>
</g>
</g>
<!-- com.example.demo.domain.model.menu.MenuItem&#45;&gt;com.example.demo.domain.model.menu.MenuCategory -->
<g id="edge4" class="edge">
<title>com.example.demo.domain.model.menu.MenuItem&#45;&gt;com.example.demo.domain.model.menu.MenuCategory</title>
<path fill="none" stroke="black" d="M254.67,-476.24C292.59,-485.12 338.35,-495.37 379.75,-503.38 391.46,-505.64 403.47,-507.88 415.61,-510.07"/>
<polygon fill="black" stroke="black" points="414.84,-513.49 425.3,-511.81 416.07,-506.6 414.84,-513.49"/>
</g>
<!-- com.example.demo.domain.model.menu.MenuItemId -->
<g id="node3" class="node">
<title>com.example.demo.domain.model.menu.MenuItemId</title>
<g id="a_node3"><a xlink:href="./domain.html#com.example.demo.domain.model.menu.MenuItemId" xlink:title="メニュー項目IDを表す値オブジェクト\nMenuItemId">
<polygon fill="#eedd82" stroke="black" points="931.25,-494.12 379.75,-494.12 379.75,-418.62 931.25,-418.62 931.25,-494.12"/>
<text xml:space="preserve" text-anchor="middle" x="655.5" y="-461.62" font-family="Times New Roman,serif" font-size="30.00">メニュー項目IDを表す値オブジェクト</text>
<text xml:space="preserve" text-anchor="middle" x="655.5" y="-427.88" font-family="Times New Roman,serif" font-size="30.00">MenuItemId</text>
</a>
</g>
</g>
<!-- com.example.demo.domain.model.menu.MenuItem&#45;&gt;com.example.demo.domain.model.menu.MenuItemId -->
<g id="edge6" class="edge">
<title>com.example.demo.domain.model.menu.MenuItem&#45;&gt;com.example.demo.domain.model.menu.MenuItemId</title>
<path fill="none" stroke="black" d="M309.6,-456.38C328.17,-456.38 347.76,-456.38 367.79,-456.38"/>
<polygon fill="black" stroke="black" points="367.78,-459.88 377.78,-456.38 367.78,-452.88 367.78,-459.88"/>
</g>
<!-- com.example.demo.domain.type.Money -->
<g id="node10" class="node">
<title>com.example.demo.domain.type.Money</title>
<g id="a_node10"><a xlink:href="./domain.html#com.example.demo.domain.type.Money" xlink:title="金額を表す値オブジェクト\nMoney">
<polygon fill="#eedd82" stroke="black" points="852.5,-362.5 458.5,-362.5 458.5,-292.25 852.5,-292.25 852.5,-362.5"/>
<text xml:space="preserve" text-anchor="middle" x="655.5" y="-330" font-family="Times New Roman,serif" font-size="30.00">金額を表す値オブジェクト</text>
<text xml:space="preserve" text-anchor="middle" x="655.5" y="-301.5" font-family="Times New Roman,serif" font-size="30.00">Money</text>
</a>
</g>
</g>
<!-- com.example.demo.domain.model.menu.MenuItem&#45;&gt;com.example.demo.domain.type.Money -->
<g id="edge1" class="edge">
<title>com.example.demo.domain.model.menu.MenuItem&#45;&gt;com.example.demo.domain.type.Money</title>
<path fill="none" stroke="black" d="M267.15,-436.58C292.13,-431.01 319.03,-424.74 343.75,-418.38 405.12,-402.58 472.71,-383.05 529.13,-366.14"/>
<polygon fill="black" stroke="black" points="529.87,-369.57 538.44,-363.34 527.86,-362.86 529.87,-369.57"/>
</g>
<!-- com.example.demo.domain.model.menu.MenuItemRepository -->
<g id="node4" class="node">
<title>com.example.demo.domain.model.menu.MenuItemRepository</title>
<g id="a_node4"><a xlink:href="./domain.html#com.example.demo.domain.model.menu.MenuItemRepository" xlink:title="メニュー項目リポジトリインターフェース\nMenuItemRepository">
<polygon fill="lemonchiffon" stroke="black" points="343.75,-549.75 0,-549.75 0,-511 343.75,-511 343.75,-549.75"/>
<text xml:space="preserve" text-anchor="middle" x="171.88" y="-532.45" font-family="Times New Roman,serif" font-size="14.00">メニュー項目リポジトリインターフェース</text>
<text xml:space="preserve" text-anchor="middle" x="171.88" y="-518.2" font-family="Times New Roman,serif" font-size="14.00">MenuItemRepository</text>
</a>
</g>
</g>
<!-- com.example.demo.domain.model.menu.MenuItemRepository&#45;&gt;com.example.demo.domain.model.menu.MenuCategory -->
<g id="edge5" class="edge">
<title>com.example.demo.domain.model.menu.MenuItemRepository&#45;&gt;com.example.demo.domain.model.menu.MenuCategory</title>
<path fill="none" stroke="black" d="M344.03,-536.42C367.14,-537.23 391.19,-538.08 415.21,-538.93"/>
<polygon fill="black" stroke="black" points="414.99,-542.42 425.11,-539.28 415.24,-535.43 414.99,-542.42"/>
</g>
<!-- com.example.demo.domain.model.menu.MenuItemRepository&#45;&gt;com.example.demo.domain.model.menu.MenuItemId -->
<g id="edge7" class="edge">
<title>com.example.demo.domain.model.menu.MenuItemRepository&#45;&gt;com.example.demo.domain.model.menu.MenuItemId</title>
<path fill="none" stroke="black" d="M301.94,-510.54C330.73,-506.12 362.26,-501.28 394.24,-496.36"/>
<polygon fill="black" stroke="black" points="394.72,-499.83 404.08,-494.85 393.66,-492.91 394.72,-499.83"/>
</g>
<!-- com.example.demo.domain.model.order.Order -->
<g id="node5" class="node">
<title>com.example.demo.domain.model.order.Order</title>
<g id="a_node5"><a xlink:href="./domain.html#com.example.demo.domain.model.order.Order" xlink:title="注文を表す集約ルートエンティティ\nOrder">
<polygon fill="lemonchiffon" stroke="black" points="317.88,-238.75 25.88,-238.75 25.88,-200 317.88,-200 317.88,-238.75"/>
<text xml:space="preserve" text-anchor="middle" x="171.88" y="-221.45" font-family="Times New Roman,serif" font-size="14.00">注文を表す集約ルートエンティティ</text>
<text xml:space="preserve" text-anchor="middle" x="171.88" y="-207.2" font-family="Times New Roman,serif" font-size="14.00">Order</text>
</a>
</g>
</g>
<!-- com.example.demo.domain.model.order.OrderId -->
<g id="node6" class="node">
<title>com.example.demo.domain.model.order.OrderId</title>
<g id="a_node6"><a xlink:href="./domain.html#com.example.demo.domain.model.order.OrderId" xlink:title="注文IDを表す値オブジェクト\nOrderId">
<polygon fill="#eedd82" stroke="black" points="868.25,-274.12 442.75,-274.12 442.75,-198.62 868.25,-198.62 868.25,-274.12"/>
<text xml:space="preserve" text-anchor="middle" x="655.5" y="-241.62" font-family="Times New Roman,serif" font-size="30.00">注文IDを表す値オブジェクト</text>
<text xml:space="preserve" text-anchor="middle" x="655.5" y="-207.88" font-family="Times New Roman,serif" font-size="30.00">OrderId</text>
</a>
</g>
</g>
<!-- com.example.demo.domain.model.order.Order&#45;&gt;com.example.demo.domain.model.order.OrderId -->
<g id="edge11" class="edge">
<title>com.example.demo.domain.model.order.Order&#45;&gt;com.example.demo.domain.model.order.OrderId</title>
<path fill="none" stroke="black" d="M318.36,-224.51C353.9,-225.76 392.74,-227.14 430.99,-228.49"/>
<polygon fill="black" stroke="black" points="430.67,-231.98 440.79,-228.83 430.92,-224.98 430.67,-231.98"/>
</g>
<!-- com.example.demo.domain.model.order.OrderStatus -->
<g id="node9" class="node">
<title>com.example.demo.domain.model.order.OrderStatus</title>
<g id="a_node9"><a xlink:href="./domain.html#com.example.demo.domain.model.order.OrderStatus" xlink:title="注文ステータスを表す列挙型\nOrderStatus">
<polygon fill="#eedd82" stroke="black" points="868.25,-180.5 442.75,-180.5 442.75,-110.25 868.25,-110.25 868.25,-180.5"/>
<text xml:space="preserve" text-anchor="middle" x="655.5" y="-148" font-family="Times New Roman,serif" font-size="30.00">注文ステータスを表す列挙型</text>
<text xml:space="preserve" text-anchor="middle" x="655.5" y="-119.5" font-family="Times New Roman,serif" font-size="30.00">OrderStatus</text>
</a>
</g>
</g>
<!-- com.example.demo.domain.model.order.Order&#45;&gt;com.example.demo.domain.model.order.OrderStatus -->
<g id="edge9" class="edge">
<title>com.example.demo.domain.model.order.Order&#45;&gt;com.example.demo.domain.model.order.OrderStatus</title>
<path fill="none" stroke="black" d="M301.94,-199.54C341.76,-193.43 386.81,-186.5 431.07,-179.7"/>
<polygon fill="black" stroke="black" points="431.46,-183.19 440.81,-178.21 430.39,-176.27 431.46,-183.19"/>
</g>
<!-- com.example.demo.domain.model.order.Order&#45;&gt;com.example.demo.domain.type.Money -->
<g id="edge2" class="edge">
<title>com.example.demo.domain.model.order.Order&#45;&gt;com.example.demo.domain.type.Money</title>
<path fill="none" stroke="black" d="M229.36,-239.22C270.61,-253.13 328.13,-271.32 379.75,-283.38 401.48,-288.45 424.31,-293.12 447.14,-297.38"/>
<polygon fill="black" stroke="black" points="446.39,-300.8 456.86,-299.16 447.65,-293.92 446.39,-300.8"/>
</g>
<!-- com.example.demo.domain.type.TableNumber -->
<g id="node12" class="node">
<title>com.example.demo.domain.type.TableNumber</title>
<g id="a_node12"><a xlink:href="./domain.html#com.example.demo.domain.type.TableNumber" xlink:title="テーブル番号を表す値オブジェクト\nTableNumber">
<polygon fill="#eedd82" stroke="black" points="915.5,-92.5 395.5,-92.5 395.5,-22.25 915.5,-22.25 915.5,-92.5"/>
<text xml:space="preserve" text-anchor="middle" x="655.5" y="-60" font-family="Times New Roman,serif" font-size="30.00">テーブル番号を表す値オブジェクト</text>
<text xml:space="preserve" text-anchor="middle" x="655.5" y="-31.5" font-family="Times New Roman,serif" font-size="30.00">TableNumber</text>
</a>
</g>
</g>
<!-- com.example.demo.domain.model.order.Order&#45;&gt;com.example.demo.domain.type.TableNumber -->
<g id="edge15" class="edge">
<title>com.example.demo.domain.model.order.Order&#45;&gt;com.example.demo.domain.type.TableNumber</title>
<path fill="none" stroke="black" d="M296.65,-199.62C313.63,-193.18 329.95,-184.65 343.75,-173.38 371.46,-150.74 350.9,-122.54 379.75,-101.38 381.77,-99.89 383.82,-98.46 385.89,-97.06"/>
<polygon fill="black" stroke="black" points="387.32,-100.3 393.9,-92 383.58,-94.38 387.32,-100.3"/>
</g>
<!-- com.example.demo.domain.model.order.OrderItem -->
<g id="node7" class="node">
<title>com.example.demo.domain.model.order.OrderItem</title>
<g id="a_node7"><a xlink:href="./domain.html#com.example.demo.domain.model.order.OrderItem" xlink:title="注文明細を表す値オブジェクト\nOrderItem">
<polygon fill="lemonchiffon" stroke="black" points="300.62,-409.75 43.12,-409.75 43.12,-371 300.62,-371 300.62,-409.75"/>
<text xml:space="preserve" text-anchor="middle" x="171.88" y="-392.45" font-family="Times New Roman,serif" font-size="14.00">注文明細を表す値オブジェクト</text>
<text xml:space="preserve" text-anchor="middle" x="171.88" y="-378.2" font-family="Times New Roman,serif" font-size="14.00">OrderItem</text>
</a>
</g>
</g>
<!-- com.example.demo.domain.model.order.OrderItem&#45;&gt;com.example.demo.domain.model.menu.MenuItemId -->
<g id="edge8" class="edge">
<title>com.example.demo.domain.model.order.OrderItem&#45;&gt;com.example.demo.domain.model.menu.MenuItemId</title>
<path fill="none" stroke="black" d="M300.99,-407.93C322.28,-410.85 345.09,-413.97 368.49,-417.18"/>
<polygon fill="black" stroke="black" points="367.77,-420.61 378.15,-418.5 368.72,-413.68 367.77,-420.61"/>
</g>
<!-- com.example.demo.domain.model.order.OrderItem&#45;&gt;com.example.demo.domain.type.Money -->
<g id="edge3" class="edge">
<title>com.example.demo.domain.model.order.OrderItem&#45;&gt;com.example.demo.domain.type.Money</title>
<path fill="none" stroke="black" d="M300.99,-373.62C345.81,-367.75 397.36,-361.01 446.98,-354.52"/>
<polygon fill="black" stroke="black" points="447.24,-358.02 456.7,-353.25 446.33,-351.08 447.24,-358.02"/>
</g>
<!-- com.example.demo.domain.type.Quantity -->
<g id="node11" class="node">
<title>com.example.demo.domain.type.Quantity</title>
<g id="a_node11"><a xlink:href="./domain.html#com.example.demo.domain.type.Quantity" xlink:title="数量を表す値オブジェクト\nQuantity">
<polygon fill="#eedd82" stroke="black" points="1361.25,-393.5 967.25,-393.5 967.25,-323.25 1361.25,-323.25 1361.25,-393.5"/>
<text xml:space="preserve" text-anchor="middle" x="1164.25" y="-361" font-family="Times New Roman,serif" font-size="30.00">数量を表す値オブジェクト</text>
<text xml:space="preserve" text-anchor="middle" x="1164.25" y="-332.5" font-family="Times New Roman,serif" font-size="30.00">Quantity</text>
</a>
</g>
</g>
<!-- com.example.demo.domain.model.order.OrderItem&#45;&gt;com.example.demo.domain.type.Quantity -->
<g id="edge13" class="edge">
<title>com.example.demo.domain.model.order.OrderItem&#45;&gt;com.example.demo.domain.type.Quantity</title>
<path fill="none" stroke="black" d="M301.06,-388.37C451.89,-385.73 709.84,-380.35 931.25,-371.38 939.22,-371.05 947.34,-370.7 955.54,-370.33"/>
<polygon fill="black" stroke="black" points="955.43,-373.84 965.25,-369.88 955.1,-366.85 955.43,-373.84"/>
</g>
<!-- com.example.demo.domain.model.order.OrderRepository -->
<g id="node8" class="node">
<title>com.example.demo.domain.model.order.OrderRepository</title>
<g id="a_node8"><a xlink:href="./domain.html#com.example.demo.domain.model.order.OrderRepository" xlink:title="注文リポジトリインターフェース\nOrderRepository">
<polygon fill="lemonchiffon" stroke="black" points="309.25,-164.75 34.5,-164.75 34.5,-126 309.25,-126 309.25,-164.75"/>
<text xml:space="preserve" text-anchor="middle" x="171.88" y="-147.45" font-family="Times New Roman,serif" font-size="14.00">注文リポジトリインターフェース</text>
<text xml:space="preserve" text-anchor="middle" x="171.88" y="-133.2" font-family="Times New Roman,serif" font-size="14.00">OrderRepository</text>
</a>
</g>
</g>
<!-- com.example.demo.domain.model.order.OrderRepository&#45;&gt;com.example.demo.domain.model.order.OrderId -->
<g id="edge12" class="edge">
<title>com.example.demo.domain.model.order.OrderRepository&#45;&gt;com.example.demo.domain.model.order.OrderId</title>
<path fill="none" stroke="black" d="M262.33,-165.22C298.69,-173.07 341.16,-181.97 379.75,-189.38 396.58,-192.6 414,-195.84 431.54,-199.01"/>
<polygon fill="black" stroke="black" points="430.52,-202.38 440.98,-200.71 431.76,-195.49 430.52,-202.38"/>
</g>
<!-- com.example.demo.domain.model.order.OrderRepository&#45;&gt;com.example.demo.domain.model.order.OrderStatus -->
<g id="edge10" class="edge">
<title>com.example.demo.domain.model.order.OrderRepository&#45;&gt;com.example.demo.domain.model.order.OrderStatus</title>
<path fill="none" stroke="black" d="M309.6,-145.38C347.43,-145.38 389.5,-145.38 430.9,-145.38"/>
<polygon fill="black" stroke="black" points="430.75,-148.88 440.75,-145.38 430.75,-141.88 430.75,-148.88"/>
</g>
<!-- com.example.demo.domain.model.order.OrderRepository&#45;&gt;com.example.demo.domain.type.TableNumber -->
<g id="edge16" class="edge">
<title>com.example.demo.domain.model.order.OrderRepository&#45;&gt;com.example.demo.domain.type.TableNumber</title>
<path fill="none" stroke="black" d="M261.27,-125.54C297.85,-117.6 340.76,-108.64 379.75,-101.38 391.39,-99.21 403.31,-97.05 415.36,-94.93"/>
<polygon fill="black" stroke="black" points="415.72,-98.42 424.97,-93.24 414.52,-91.52 415.72,-98.42"/>
</g>
<!-- com.example.demo.domain.type.Money&#45;&gt;com.example.demo.domain.type.Quantity -->
<g id="edge14" class="edge">
<title>com.example.demo.domain.type.Money&#45;&gt;com.example.demo.domain.type.Quantity</title>
<path fill="none" stroke="black" d="M852.79,-339.38C886.42,-341.44 921.48,-343.58 955.4,-345.66"/>
<polygon fill="black" stroke="black" points="955.16,-349.15 965.35,-346.27 955.58,-342.16 955.16,-349.15"/>
</g>
</g>
</svg>
