<?xml version="1.0" encoding="UTF-8" standalone="no"?>
<!DOCTYPE svg PUBLIC "-//W3C//DTD SVG 1.1//EN"
 "http://www.w3.org/Graphics/SVG/1.1/DTD/svg11.dtd">
<!-- Generated by graphviz version 14.1.2 (20260124.0452)
 -->
<!-- Title: 区分図 Pages: 1 -->
<svg width="572pt" height="486pt"
 viewBox="0.00 0.00 572.00 486.00" xmlns="http://www.w3.org/2000/svg" xmlns:xlink="http://www.w3.org/1999/xlink">
<g id="graph0" class="graph" transform="scale(1 1) rotate(0) translate(4 459.75)">
<title>区分図</title>
<polygon fill="white" stroke="none" points="-4,26.25 -4,-459.75 567.88,-459.75 567.88,26.25 -4,26.25"/>
<text xml:space="preserve" text-anchor="middle" x="281.94" y="17.3" font-family="Times New Roman,serif" font-size="14.00">区分図</text>
<g id="clust1" class="cluster">
<title>cluster_com.example.demo.domain.model.menu</title>
<polygon fill="none" stroke="lightgray" points="286.38,-260 286.38,-455.75 563.88,-455.75 563.88,-260 286.38,-260"/>
<text xml:space="preserve" text-anchor="middle" x="425.13" y="-438.45" font-family="Times New Roman,serif" font-size="14.00">menu</text>
</g>
<g id="clust2" class="cluster">
<title>cluster_com.example.demo.domain.model.order</title>
<polygon fill="none" stroke="lightgray" points="0,0 0,-195.75 260.25,-195.75 260.25,0 0,0"/>
<text xml:space="preserve" text-anchor="middle" x="130.12" y="-178.45" font-family="Times New Roman,serif" font-size="14.00">order</text>
</g>
<!-- com.example.demo.domain.model.menu.MenuCategory -->
<g id="node1" class="node">
<title>com.example.demo.domain.model.menu.MenuCategory</title>
<g id="a_node1"><a xlink:href="./enum.html#com.example.demo.domain.model.menu.MenuCategory" xlink:title="&lt;TABLE&gt;">
<polygon fill="#eedd82" stroke="black" points="555.88,-423.25 294.38,-423.25 294.38,-268 555.88,-268 555.88,-423.25"/>
<text xml:space="preserve" text-anchor="start" x="304.38" y="-403.95" font-family="Times New Roman,serif" font-size="14.00">メニューカテゴリを表す列挙型</text>
<text xml:space="preserve" text-anchor="start" x="384.25" y="-387.45" font-family="Times New Roman,serif" font-size="14.00">MenuCategory</text>
<polygon fill="none" stroke="black" points="302.38,-362 302.38,-384.5 547.88,-384.5 547.88,-362 302.38,-362"/>
<text xml:space="preserve" text-anchor="start" x="389.5" y="-368.2" font-family="Times New Roman,serif" font-size="14.00">APPETIZER</text>
<polygon fill="none" stroke="black" points="302.38,-339.5 302.38,-362 547.88,-362 547.88,-339.5 302.38,-339.5"/>
<text xml:space="preserve" text-anchor="start" x="376.75" y="-345.7" font-family="Times New Roman,serif" font-size="14.00">MAIN_COURSE</text>
<polygon fill="none" stroke="black" points="302.38,-317 302.38,-339.5 547.88,-339.5 547.88,-317 302.38,-317"/>
<text xml:space="preserve" text-anchor="start" x="391" y="-323.2" font-family="Times New Roman,serif" font-size="14.00">SIDE_DISH</text>
<polygon fill="none" stroke="black" points="302.38,-294.5 302.38,-317 547.88,-317 547.88,-294.5 302.38,-294.5"/>
<text xml:space="preserve" text-anchor="start" x="403.75" y="-300.7" font-family="Times New Roman,serif" font-size="14.00">DRINK</text>
<polygon fill="none" stroke="black" points="302.38,-272 302.38,-294.5 547.88,-294.5 547.88,-272 302.38,-272"/>
<text xml:space="preserve" text-anchor="start" x="396.25" y="-278.2" font-family="Times New Roman,serif" font-size="14.00">DESSERT</text>
</a>
</g>
</g>
<!-- com.example.demo.domain.model.order.OrderStatus -->
<g id="node2" class="node">
<title>com.example.demo.domain.model.order.OrderStatus</title>
<g id="a_node2"><a xlink:href="./enum.html#com.example.demo.domain.model.order.OrderStatus" xlink:title="&lt;TABLE&gt;">
<polygon fill="#eedd82" stroke="black" points="252.25,-163.25 8,-163.25 8,-8 252.25,-8 252.25,-163.25"/>
<text xml:space="preserve" text-anchor="start" x="18" y="-143.95" font-family="Times New Roman,serif" font-size="14.00">注文ステータスを表す列挙型</text>
<text xml:space="preserve" text-anchor="start" x="97.87" y="-127.45" font-family="Times New Roman,serif" font-size="14.00">OrderStatus</text>
<polygon fill="none" stroke="black" points="16,-102 16,-124.5 244.25,-124.5 244.25,-102 16,-102"/>
<text xml:space="preserve" text-anchor="start" x="103.87" y="-108.2" font-family="Times New Roman,serif" font-size="14.00">PLACED</text>
<polygon fill="none" stroke="black" points="16,-79.5 16,-102 244.25,-102 244.25,-79.5 16,-79.5"/>
<text xml:space="preserve" text-anchor="start" x="93" y="-85.7" font-family="Times New Roman,serif" font-size="14.00">PREPARING</text>
<polygon fill="none" stroke="black" points="16,-57 16,-79.5 244.25,-79.5 244.25,-57 16,-57"/>
<text xml:space="preserve" text-anchor="start" x="106.87" y="-63.2" font-family="Times New Roman,serif" font-size="14.00">READY</text>
<polygon fill="none" stroke="black" points="16,-34.5 16,-57 244.25,-57 244.25,-34.5 16,-34.5"/>
<text xml:space="preserve" text-anchor="start" x="104.25" y="-40.7" font-family="Times New Roman,serif" font-size="14.00">SERVED</text>
<polygon fill="none" stroke="black" points="16,-12 16,-34.5 244.25,-34.5 244.25,-12 16,-12"/>
<text xml:space="preserve" text-anchor="start" x="90" y="-18.2" font-family="Times New Roman,serif" font-size="14.00">CANCELLED</text>
</a>
</g>
</g>
</g>
</svg>
