<?xml version="1.0" encoding="UTF-8" standalone="no"?>
<!DOCTYPE svg PUBLIC "-//W3C//DTD SVG 1.1//EN"
 "http://www.w3.org/Graphics/SVG/1.1/DTD/svg11.dtd">
<!-- Generated by graphviz version 14.1.2 (20260124.0452)
 -->
<!-- Title: 区分使用図 Pages: 1 -->
<svg width="1600pt" height="866pt"
 viewBox="0.00 0.00 1600.00 866.00" xmlns="http://www.w3.org/2000/svg" xmlns:xlink="http://www.w3.org/1999/xlink">
<g id="graph0" class="graph" transform="scale(1 1) rotate(0) translate(4 862.25)">
<title>区分使用図</title>
<polygon fill="white" stroke="none" points="-4,4 -4,-862.25 1596.12,-862.25 1596.12,4 -4,4"/>
<text xml:space="preserve" text-anchor="middle" x="796.06" y="-4.95" font-family="Times New Roman,serif" font-size="14.00">区分使用図</text>
<!-- com.example.demo.domain.model.menu.MenuCategory -->
<g id="node1" class="node">
<title>com.example.demo.domain.model.menu.MenuCategory</title>
<polygon fill="#eedd82" stroke="black" points="1592.12,-764.62 1338.62,-764.62 1334.62,-760.62 1334.62,-725.88 1588.12,-725.88 1592.12,-729.88 1592.12,-764.62"/>
<polyline fill="none" stroke="black" points="1588.12,-760.62 1334.62,-760.62"/>
<polyline fill="none" stroke="black" points="1588.12,-760.62 1588.12,-725.88"/>
<polyline fill="none" stroke="black" points="1588.12,-760.62 1592.12,-764.62"/>
<text xml:space="preserve" text-anchor="middle" x="1463.37" y="-747.33" font-family="Times New Roman,serif" font-size="14.00">メニューカテゴリを表す列挙型</text>
<text xml:space="preserve" text-anchor="middle" x="1463.37" y="-733.08" font-family="Times New Roman,serif" font-size="14.00">MenuCategory</text>
</g>
<!-- com.example.demo.domain.model.order.OrderStatus -->
<g id="node2" class="node">
<title>com.example.demo.domain.model.order.OrderStatus</title>
<polygon fill="#eedd82" stroke="black" points="1583.49,-253.62 1347.24,-253.62 1343.24,-249.62 1343.24,-214.88 1579.49,-214.88 1583.49,-218.88 1583.49,-253.62"/>
<polyline fill="none" stroke="black" points="1579.49,-249.62 1343.24,-249.62"/>
<polyline fill="none" stroke="black" points="1579.49,-249.62 1579.49,-214.88"/>
<polyline fill="none" stroke="black" points="1579.49,-249.62 1583.49,-253.62"/>
<text xml:space="preserve" text-anchor="middle" x="1463.37" y="-236.32" font-family="Times New Roman,serif" font-size="14.00">注文ステータスを表す列挙型</text>
<text xml:space="preserve" text-anchor="middle" x="1463.37" y="-222.07" font-family="Times New Roman,serif" font-size="14.00">OrderStatus</text>
</g>
<!-- com.example.demo.application.order.OrderApplicationService#cancelOrder(java.lang.String) -->
<g id="node3" class="node">
<title>com.example.demo.application.order.OrderApplicationService#cancelOrder(java.lang.String)</title>
<g id="a_node3"><a xlink:href="./application.html#com.example.demo.application.order.OrderApplicationService" xlink:title="OrderApplicationService.cancelOrder(String)">
<ellipse fill="lemonchiffon" stroke="black" cx="295.43" cy="-257.25" rx="119.89" ry="18"/>
<text xml:space="preserve" text-anchor="middle" x="295.43" y="-251.07" font-family="Times New Roman,serif" font-size="14.00">注文をキャンセルする</text>
</a>
</g>
</g>
<!-- com.example.demo.domain.model.order.Order -->
<g id="node18" class="node">
<title>com.example.demo.domain.model.order.Order</title>
<g id="a_node18"><a xlink:href="./domain.html#com.example.demo.domain.model.order.Order" xlink:title="注文を表す集約ルートエンティティ\nOrder">
<polygon fill="white" stroke="black" points="1298.62,-310.62 1006.62,-310.62 1006.62,-271.88 1298.62,-271.88 1298.62,-310.62"/>
<text xml:space="preserve" text-anchor="middle" x="1152.62" y="-293.32" font-family="Times New Roman,serif" font-size="14.00">注文を表す集約ルートエンティティ</text>
<text xml:space="preserve" text-anchor="middle" x="1152.62" y="-279.07" font-family="Times New Roman,serif" font-size="14.00">Order</text>
</a>
</g>
</g>
<!-- com.example.demo.application.order.OrderApplicationService#cancelOrder(java.lang.String)&#45;&gt;com.example.demo.domain.model.order.Order -->
<g id="edge7" class="edge">
<title>com.example.demo.application.order.OrderApplicationService#cancelOrder(java.lang.String)&#45;&gt;com.example.demo.domain.model.order.Order</title>
<path fill="none" stroke="black" d="M411.77,-261.84C562.29,-267.82 826.34,-278.32 994.9,-285.02"/>
<polygon fill="black" stroke="black" points="994.73,-288.52 1004.86,-285.42 995,-281.52 994.73,-288.52"/>
</g>
<!-- com.example.demo.domain.model.order.OrderRepository -->
<g id="node19" class="node">
<title>com.example.demo.domain.model.order.OrderRepository</title>
<g id="a_node19"><a xlink:href="./domain.html#com.example.demo.domain.model.order.OrderRepository" xlink:title="注文リポジトリインターフェース\nOrderRepository">
<polygon fill="white" stroke="black" points="936.12,-395.62 661.37,-395.62 661.37,-356.88 936.12,-356.88 936.12,-395.62"/>
<text xml:space="preserve" text-anchor="middle" x="798.74" y="-378.32" font-family="Times New Roman,serif" font-size="14.00">注文リポジトリインターフェース</text>
<text xml:space="preserve" text-anchor="middle" x="798.74" y="-364.07" font-family="Times New Roman,serif" font-size="14.00">OrderRepository</text>
</a>
</g>
</g>
<!-- com.example.demo.application.order.OrderApplicationService#cancelOrder(java.lang.String)&#45;&gt;com.example.demo.domain.model.order.OrderRepository -->
<g id="edge8" class="edge">
<title>com.example.demo.application.order.OrderApplicationService#cancelOrder(java.lang.String)&#45;&gt;com.example.demo.domain.model.order.OrderRepository</title>
<path fill="none" stroke="black" d="M414.73,-259.29C469.09,-262.46 533.99,-269.43 590.87,-284.25 649.25,-299.47 711.99,-329.51 752.88,-351.13"/>
<polygon fill="black" stroke="black" points="750.98,-354.08 761.45,-355.72 754.29,-347.91 750.98,-354.08"/>
</g>
<!-- com.example.demo.application.order.OrderApplicationService#placeOrder(com.example.demo.application.order.PlaceOrderCommand) -->
<g id="node4" class="node">
<title>com.example.demo.application.order.OrderApplicationService#placeOrder(com.example.demo.application.order.PlaceOrderCommand)</title>
<g id="a_node4"><a xlink:href="./application.html#com.example.demo.application.order.OrderApplicationService" xlink:title="OrderApplicationService.placeOrder(PlaceOrderCommand)">
<ellipse fill="lemonchiffon" stroke="black" cx="295.43" cy="-550.25" rx="86.98" ry="18"/>
<text xml:space="preserve" text-anchor="middle" x="295.43" y="-544.08" font-family="Times New Roman,serif" font-size="14.00">注文を作成する</text>
</a>
</g>
</g>
<!-- com.example.demo.domain.model.menu.MenuItem -->
<g id="node16" class="node">
<title>com.example.demo.domain.model.menu.MenuItem</title>
<g id="a_node16"><a xlink:href="./domain.html#com.example.demo.domain.model.menu.MenuItem" xlink:title="メニュー項目を表すエンティティ\nMenuItem">
<polygon fill="white" stroke="black" points="1289.99,-726.62 1015.24,-726.62 1015.24,-687.88 1289.99,-687.88 1289.99,-726.62"/>
<text xml:space="preserve" text-anchor="middle" x="1152.62" y="-709.33" font-family="Times New Roman,serif" font-size="14.00">メニュー項目を表すエンティティ</text>
<text xml:space="preserve" text-anchor="middle" x="1152.62" y="-695.08" font-family="Times New Roman,serif" font-size="14.00">MenuItem</text>
</a>
</g>
</g>
<!-- com.example.demo.application.order.OrderApplicationService#placeOrder(com.example.demo.application.order.PlaceOrderCommand)&#45;&gt;com.example.demo.domain.model.menu.MenuItem -->
<g id="edge9" class="edge">
<title>com.example.demo.application.order.OrderApplicationService#placeOrder(com.example.demo.application.order.PlaceOrderCommand)&#45;&gt;com.example.demo.domain.model.menu.MenuItem</title>
<path fill="none" stroke="black" d="M382.59,-550.66C539.07,-552.27 863.65,-559.79 970.62,-594.25 1028.07,-612.76 1085.71,-653.48 1120.03,-680.65"/>
<polygon fill="black" stroke="black" points="1117.48,-683.09 1127.47,-686.63 1121.87,-677.64 1117.48,-683.09"/>
</g>
<!-- com.example.demo.domain.model.menu.MenuItemRepository -->
<g id="node17" class="node">
<title>com.example.demo.domain.model.menu.MenuItemRepository</title>
<g id="a_node17"><a xlink:href="./domain.html#com.example.demo.domain.model.menu.MenuItemRepository" xlink:title="メニュー項目リポジトリインターフェース\nMenuItemRepository">
<polygon fill="white" stroke="black" points="970.62,-641.62 626.87,-641.62 626.87,-602.88 970.62,-602.88 970.62,-641.62"/>
<text xml:space="preserve" text-anchor="middle" x="798.74" y="-624.33" font-family="Times New Roman,serif" font-size="14.00">メニュー項目リポジトリインターフェース</text>
<text xml:space="preserve" text-anchor="middle" x="798.74" y="-610.08" font-family="Times New Roman,serif" font-size="14.00">MenuItemRepository</text>
</a>
</g>
</g>
<!-- com.example.demo.application.order.OrderApplicationService#placeOrder(com.example.demo.application.order.PlaceOrderCommand)&#45;&gt;com.example.demo.domain.model.menu.MenuItemRepository -->
<g id="edge10" class="edge">
<title>com.example.demo.application.order.OrderApplicationService#placeOrder(com.example.demo.application.order.PlaceOrderCommand)&#45;&gt;com.example.demo.domain.model.menu.MenuItemRepository</title>
<path fill="none" stroke="black" d="M367.99,-560.53C440.72,-570.97 555.54,-587.46 648.21,-600.77"/>
<polygon fill="black" stroke="black" points="647.51,-604.21 657.9,-602.17 648.5,-597.28 647.51,-604.21"/>
</g>
<!-- com.example.demo.application.order.OrderApplicationService#placeOrder(com.example.demo.application.order.PlaceOrderCommand)&#45;&gt;com.example.demo.domain.model.order.Order -->
<g id="edge11" class="edge">
<title>com.example.demo.application.order.OrderApplicationService#placeOrder(com.example.demo.application.order.PlaceOrderCommand)&#45;&gt;com.example.demo.domain.model.order.Order</title>
<path fill="none" stroke="black" d="M378.84,-555.79C510.67,-561.25 774.1,-557.93 970.62,-464.25 1040.58,-430.9 1100.89,-360.08 1131.05,-320.17"/>
<polygon fill="black" stroke="black" points="1133.83,-322.3 1136.98,-312.18 1128.21,-318.12 1133.83,-322.3"/>
</g>
<!-- com.example.demo.application.order.OrderApplicationService#placeOrder(com.example.demo.application.order.PlaceOrderCommand)&#45;&gt;com.example.demo.domain.model.order.OrderRepository -->
<g id="edge12" class="edge">
<title>com.example.demo.application.order.OrderApplicationService#placeOrder(com.example.demo.application.order.PlaceOrderCommand)&#45;&gt;com.example.demo.domain.model.order.OrderRepository</title>
<path fill="none" stroke="black" d="M378.51,-544.52C438.77,-538.37 521.81,-525.78 590.87,-500.25 655.95,-476.19 723.46,-431.32 762.98,-402.66"/>
<polygon fill="black" stroke="black" points="764.72,-405.73 770.71,-397 760.58,-400.09 764.72,-405.73"/>
</g>
<!-- com.example.demo.application.order.OrderApplicationService#updateOrderStatus(com.example.demo.application.order.UpdateOrderStatusCommand) -->
<g id="node5" class="node">
<title>com.example.demo.application.order.OrderApplicationService#updateOrderStatus(com.example.demo.application.order.UpdateOrderStatusCommand)</title>
<g id="a_node5"><a xlink:href="./application.html#com.example.demo.application.order.OrderApplicationService" xlink:title="OrderApplicationService.updateOrderStatus(UpdateOrderStatusCommand)">
<ellipse fill="lemonchiffon" stroke="black" cx="295.43" cy="-203.25" rx="141.83" ry="18"/>
<text xml:space="preserve" text-anchor="middle" x="295.43" y="-197.07" font-family="Times New Roman,serif" font-size="14.00">注文ステータスを更新する</text>
</a>
</g>
</g>
<!-- com.example.demo.application.order.OrderApplicationService#updateOrderStatus(com.example.demo.application.order.UpdateOrderStatusCommand)&#45;&gt;com.example.demo.domain.model.order.OrderStatus -->
<g id="edge15" class="edge">
<title>com.example.demo.application.order.OrderApplicationService#updateOrderStatus(com.example.demo.application.order.UpdateOrderStatusCommand)&#45;&gt;com.example.demo.domain.model.order.OrderStatus</title>
<path fill="none" stroke="black" d="M434.76,-206.93C661.69,-212.96 1109.94,-224.88 1331.75,-230.78"/>
<polygon fill="black" stroke="black" points="1331.51,-234.27 1341.6,-231.04 1331.69,-227.27 1331.51,-234.27"/>
</g>
<!-- com.example.demo.application.order.OrderApplicationService#updateOrderStatus(com.example.demo.application.order.UpdateOrderStatusCommand)&#45;&gt;com.example.demo.domain.model.order.Order -->
<g id="edge13" class="edge">
<title>com.example.demo.application.order.OrderApplicationService#updateOrderStatus(com.example.demo.application.order.UpdateOrderStatusCommand)&#45;&gt;com.example.demo.domain.model.order.Order</title>
<path fill="none" stroke="black" d="M415.63,-213.13C550.47,-224.63 776.58,-244.94 970.62,-267.25 978.63,-268.17 986.83,-269.15 995.12,-270.16"/>
<polygon fill="black" stroke="black" points="994.59,-273.62 1004.94,-271.37 995.45,-266.67 994.59,-273.62"/>
</g>
<!-- com.example.demo.application.order.OrderApplicationService#updateOrderStatus(com.example.demo.application.order.UpdateOrderStatusCommand)&#45;&gt;com.example.demo.domain.model.order.OrderRepository -->
<g id="edge14" class="edge">
<title>com.example.demo.application.order.OrderApplicationService#updateOrderStatus(com.example.demo.application.order.UpdateOrderStatusCommand)&#45;&gt;com.example.demo.domain.model.order.OrderRepository</title>
<path fill="none" stroke="black" d="M436.78,-201.29C486.68,-204.42 542.46,-212.41 590.87,-230.25 662.47,-256.63 732.08,-314.36 769.49,-348.8"/>
<polygon fill="black" stroke="black" points="767.04,-351.31 776.74,-355.57 771.82,-346.19 767.04,-351.31"/>
</g>
<!-- com.example.demo.query.menu.MenuQueryService#findAllMenuItems() -->
<g id="node6" class="node">
<title>com.example.demo.query.menu.MenuQueryService#findAllMenuItems()</title>
<g id="a_node6"><a xlink:href="./application.html#com.example.demo.query.menu.MenuQueryService" xlink:title="MenuQueryService.findAllMenuItems()">
<ellipse fill="lemonchiffon" stroke="black" cx="295.43" cy="-684.25" rx="163.78" ry="18"/>
<text xml:space="preserve" text-anchor="middle" x="295.43" y="-678.08" font-family="Times New Roman,serif" font-size="14.00">全メニュー項目一覧を取得する</text>
</a>
</g>
</g>
<!-- com.example.demo.query.menu.MenuQueryService#findAllMenuItems()&#45;&gt;com.example.demo.domain.model.menu.MenuItem -->
<g id="edge16" class="edge">
<title>com.example.demo.query.menu.MenuQueryService#findAllMenuItems()&#45;&gt;com.example.demo.domain.model.menu.MenuItem</title>
<path fill="none" stroke="black" d="M454.78,-688.51C611.76,-692.73 850.35,-699.15 1003.61,-703.27"/>
<polygon fill="black" stroke="black" points="1003.35,-706.76 1013.44,-703.53 1003.54,-699.77 1003.35,-706.76"/>
</g>
<!-- com.example.demo.query.menu.MenuQueryService#findAllMenuItems()&#45;&gt;com.example.demo.domain.model.menu.MenuItemRepository -->
<g id="edge17" class="edge">
<title>com.example.demo.query.menu.MenuQueryService#findAllMenuItems()&#45;&gt;com.example.demo.domain.model.menu.MenuItemRepository</title>
<path fill="none" stroke="black" d="M420.85,-672.37C473.38,-667.04 535.16,-660.35 590.87,-653.25 613.23,-650.4 636.92,-647.11 659.97,-643.75"/>
<polygon fill="black" stroke="black" points="660.34,-647.24 669.73,-642.33 659.33,-640.31 660.34,-647.24"/>
</g>
<!-- com.example.demo.query.menu.MenuQueryService#findAvailableMenuItems() -->
<g id="node7" class="node">
<title>com.example.demo.query.menu.MenuQueryService#findAvailableMenuItems()</title>
<g id="a_node7"><a xlink:href="./application.html#com.example.demo.query.menu.MenuQueryService" xlink:title="MenuQueryService.findAvailableMenuItems()">
<ellipse fill="lemonchiffon" stroke="black" cx="295.43" cy="-626.25" rx="207.66" ry="18"/>
<text xml:space="preserve" text-anchor="middle" x="295.43" y="-620.08" font-family="Times New Roman,serif" font-size="14.00">提供可能なメニュー項目一覧を取得する</text>
</a>
</g>
</g>
<!-- com.example.demo.query.menu.MenuQueryService#findAvailableMenuItems()&#45;&gt;com.example.demo.domain.model.menu.MenuItem -->
<g id="edge18" class="edge">
<title>com.example.demo.query.menu.MenuQueryService#findAvailableMenuItems()&#45;&gt;com.example.demo.domain.model.menu.MenuItem</title>
<path fill="none" stroke="black" d="M440.79,-639.49C577.32,-652.07 787.93,-671.63 970.62,-689.25 981.34,-690.28 992.43,-691.36 1003.58,-692.46"/>
<polygon fill="black" stroke="black" points="1002.95,-695.91 1013.24,-693.4 1003.63,-688.94 1002.95,-695.91"/>
</g>
<!-- com.example.demo.query.menu.MenuQueryService#findAvailableMenuItems()&#45;&gt;com.example.demo.domain.model.menu.MenuItemRepository -->
<g id="edge19" class="edge">
<title>com.example.demo.query.menu.MenuQueryService#findAvailableMenuItems()&#45;&gt;com.example.demo.domain.model.menu.MenuItemRepository</title>
<path fill="none" stroke="black" d="M502.5,-624.61C539.83,-624.31 578.51,-624 615.1,-623.71"/>
<polygon fill="black" stroke="black" points="614.9,-627.21 624.88,-623.63 614.85,-620.21 614.9,-627.21"/>
</g>
<!-- com.example.demo.query.menu.MenuQueryService#findMenuItemsByCategory(java.lang.String) -->
<g id="node8" class="node">
<title>com.example.demo.query.menu.MenuQueryService#findMenuItemsByCategory(java.lang.String)</title>
<g id="a_node8"><a xlink:href="./application.html#com.example.demo.query.menu.MenuQueryService" xlink:title="MenuQueryService.findMenuItemsByCategory(String)">
<ellipse fill="lemonchiffon" stroke="black" cx="295.43" cy="-745.25" rx="218.63" ry="18"/>
<text xml:space="preserve" text-anchor="middle" x="295.43" y="-739.08" font-family="Times New Roman,serif" font-size="14.00">カテゴリ別にメニュー項目一覧を取得する</text>
</a>
</g>
</g>
<!-- com.example.demo.query.menu.MenuQueryService#findMenuItemsByCategory(java.lang.String)&#45;&gt;com.example.demo.domain.model.menu.MenuCategory -->
<g id="edge20" class="edge">
<title>com.example.demo.query.menu.MenuQueryService#findMenuItemsByCategory(java.lang.String)&#45;&gt;com.example.demo.domain.model.menu.MenuCategory</title>
<path fill="none" stroke="black" d="M514.37,-745.25C751.17,-745.25 1122.43,-745.25 1322.85,-745.25"/>
<polygon fill="black" stroke="black" points="1322.81,-748.75 1332.81,-745.25 1322.81,-741.75 1322.81,-748.75"/>
</g>
<!-- com.example.demo.query.menu.MenuQueryService#findMenuItemsByCategory(java.lang.String)&#45;&gt;com.example.demo.domain.model.menu.MenuItem -->
<g id="edge21" class="edge">
<title>com.example.demo.query.menu.MenuQueryService#findMenuItemsByCategory(java.lang.String)&#45;&gt;com.example.demo.domain.model.menu.MenuItem</title>
<path fill="none" stroke="black" d="M489.42,-736.67C645.18,-729.75 861.11,-720.16 1003.48,-713.83"/>
<polygon fill="black" stroke="black" points="1003.54,-717.33 1013.37,-713.39 1003.22,-710.34 1003.54,-717.33"/>
</g>
<!-- com.example.demo.query.menu.MenuQueryService#findMenuItemsByCategory(java.lang.String)&#45;&gt;com.example.demo.domain.model.menu.MenuItemRepository -->
<g id="edge22" class="edge">
<title>com.example.demo.query.menu.MenuQueryService#findMenuItemsByCategory(java.lang.String)&#45;&gt;com.example.demo.domain.model.menu.MenuItemRepository</title>
<path fill="none" stroke="black" d="M468.11,-733.94C508.79,-728.93 551.71,-721.69 590.87,-711.25 647.86,-696.05 709.53,-667.86 750.56,-647.26"/>
<polygon fill="black" stroke="black" points="752.11,-650.4 759.45,-642.75 748.94,-644.16 752.11,-650.4"/>
</g>
<!-- com.example.demo.query.menu.MenuQueryService#toView(com.example.demo.domain.model.menu.MenuItem) -->
<g id="node9" class="node">
<title>com.example.demo.query.menu.MenuQueryService#toView(com.example.demo.domain.model.menu.MenuItem)</title>
<g id="a_node9"><a xlink:href="./application.html#com.example.demo.query.menu.MenuQueryService" xlink:title="MenuQueryService.toView(MenuItem)">
<ellipse fill="lemonchiffon" stroke="black" cx="295.43" cy="-840.25" rx="250.44" ry="18"/>
<text xml:space="preserve" text-anchor="middle" x="295.43" y="-835.2" font-family="Times New Roman,serif" font-size="14.00">MenuItemエンティティをMenuItemViewに変換する</text>
</a>
</g>
</g>
<!-- com.example.demo.query.menu.MenuQueryService#toView(com.example.demo.domain.model.menu.MenuItem)&#45;&gt;com.example.demo.domain.model.menu.MenuCategory -->
<g id="edge23" class="edge">
<title>com.example.demo.query.menu.MenuQueryService#toView(com.example.demo.domain.model.menu.MenuItem)&#45;&gt;com.example.demo.domain.model.menu.MenuCategory</title>
<path fill="none" stroke="black" d="M466.68,-826.73C666.09,-810.84 1006.37,-783.55 1298.62,-759.25 1306.63,-758.58 1314.87,-757.89 1323.18,-757.19"/>
<polygon fill="black" stroke="black" points="1323.36,-760.69 1333.03,-756.36 1322.77,-753.72 1323.36,-760.69"/>
</g>
<!-- com.example.demo.query.menu.MenuQueryService#toView(com.example.demo.domain.model.menu.MenuItem)&#45;&gt;com.example.demo.domain.model.menu.MenuItem -->
<g id="edge24" class="edge">
<title>com.example.demo.query.menu.MenuQueryService#toView(com.example.demo.domain.model.menu.MenuItem)&#45;&gt;com.example.demo.domain.model.menu.MenuItem</title>
<path fill="none" stroke="black" d="M405.35,-823.65C538.66,-803.28 771.29,-767.59 970.62,-736.25 985.81,-733.86 1001.73,-731.34 1017.54,-728.82"/>
<polygon fill="black" stroke="black" points="1017.65,-732.35 1026.97,-727.32 1016.55,-725.44 1017.65,-732.35"/>
</g>
<!-- com.example.demo.query.order.OrderQueryService#findActiveOrdersByTable(int) -->
<g id="node10" class="node">
<title>com.example.demo.query.order.OrderQueryService#findActiveOrdersByTable(int)</title>
<g id="a_node10"><a xlink:href="./application.html#com.example.demo.query.order.OrderQueryService" xlink:title="OrderQueryService.findActiveOrdersByTable(int)">
<ellipse fill="lemonchiffon" stroke="black" cx="295.43" cy="-419.25" rx="295.43" ry="18"/>
<text xml:space="preserve" text-anchor="middle" x="295.43" y="-413.07" font-family="Times New Roman,serif" font-size="14.00">テーブル番号でアクティブな注文サマリー一覧を取得する</text>
</a>
</g>
</g>
<!-- com.example.demo.query.order.OrderQueryService#findActiveOrdersByTable(int)&#45;&gt;com.example.demo.domain.model.order.Order -->
<g id="edge25" class="edge">
<title>com.example.demo.query.order.OrderQueryService#findActiveOrdersByTable(int)&#45;&gt;com.example.demo.domain.model.order.Order</title>
<path fill="none" stroke="black" d="M559.5,-427.58C714.94,-429.74 895.6,-426.65 970.62,-404.25 1028.62,-386.93 1086.31,-345.68 1120.47,-318.11"/>
<polygon fill="black" stroke="black" points="1122.36,-321.08 1127.87,-312.03 1117.92,-315.67 1122.36,-321.08"/>
</g>
<!-- com.example.demo.query.order.OrderQueryService#findActiveOrdersByTable(int)&#45;&gt;com.example.demo.domain.model.order.OrderRepository -->
<g id="edge26" class="edge">
<title>com.example.demo.query.order.OrderQueryService#findActiveOrdersByTable(int)&#45;&gt;com.example.demo.domain.model.order.OrderRepository</title>
<path fill="none" stroke="black" d="M470.36,-404.33C528.95,-399.31 593.73,-393.75 650.1,-388.91"/>
<polygon fill="black" stroke="black" points="650.08,-392.43 659.75,-388.09 649.49,-385.45 650.08,-392.43"/>
</g>
<!-- com.example.demo.query.order.OrderQueryService#findAllOrders() -->
<g id="node11" class="node">
<title>com.example.demo.query.order.OrderQueryService#findAllOrders()</title>
<g id="a_node11"><a xlink:href="./application.html#com.example.demo.query.order.OrderQueryService" xlink:title="OrderQueryService.findAllOrders()">
<ellipse fill="lemonchiffon" stroke="black" cx="295.43" cy="-365.25" rx="174.75" ry="18"/>
<text xml:space="preserve" text-anchor="middle" x="295.43" y="-359.07" font-family="Times New Roman,serif" font-size="14.00">全注文のサマリー一覧を取得する</text>
</a>
</g>
</g>
<!-- com.example.demo.query.order.OrderQueryService#findAllOrders()&#45;&gt;com.example.demo.domain.model.order.Order -->
<g id="edge27" class="edge">
<title>com.example.demo.query.order.OrderQueryService#findAllOrders()&#45;&gt;com.example.demo.domain.model.order.Order</title>
<path fill="none" stroke="black" d="M445.22,-355.66C581.94,-346.4 790.13,-331.17 970.62,-313.25 978.63,-312.45 986.84,-311.6 995.12,-310.71"/>
<polygon fill="black" stroke="black" points="995.39,-314.2 1004.95,-309.63 994.63,-307.24 995.39,-314.2"/>
</g>
<!-- com.example.demo.query.order.OrderQueryService#findAllOrders()&#45;&gt;com.example.demo.domain.model.order.OrderRepository -->
<g id="edge28" class="edge">
<title>com.example.demo.query.order.OrderQueryService#findAllOrders()&#45;&gt;com.example.demo.domain.model.order.OrderRepository</title>
<path fill="none" stroke="black" d="M466.85,-368.99C526.19,-370.29 592.24,-371.74 649.63,-373"/>
<polygon fill="black" stroke="black" points="649.4,-376.5 659.47,-373.22 649.55,-369.5 649.4,-376.5"/>
</g>
<!-- com.example.demo.query.order.OrderQueryService#findOrderDetail(java.lang.String) -->
<g id="node12" class="node">
<title>com.example.demo.query.order.OrderQueryService#findOrderDetail(java.lang.String)</title>
<g id="a_node12"><a xlink:href="./application.html#com.example.demo.query.order.OrderQueryService" xlink:title="OrderQueryService.findOrderDetail(String)">
<ellipse fill="lemonchiffon" stroke="black" cx="295.43" cy="-311.25" rx="108.92" ry="18"/>
<text xml:space="preserve" text-anchor="middle" x="295.43" y="-305.07" font-family="Times New Roman,serif" font-size="14.00">注文詳細を取得する</text>
</a>
</g>
</g>
<!-- com.example.demo.query.order.OrderQueryService#findOrderDetail(java.lang.String)&#45;&gt;com.example.demo.domain.model.order.Order -->
<g id="edge29" class="edge">
<title>com.example.demo.query.order.OrderQueryService#findOrderDetail(java.lang.String)&#45;&gt;com.example.demo.domain.model.order.Order</title>
<path fill="none" stroke="black" d="M403.44,-308.75C552.37,-305.26 823.11,-298.93 994.83,-294.92"/>
<polygon fill="black" stroke="black" points="994.83,-298.42 1004.74,-294.68 994.66,-291.42 994.83,-298.42"/>
</g>
<!-- com.example.demo.query.order.OrderQueryService#findOrderDetail(java.lang.String)&#45;&gt;com.example.demo.domain.model.order.OrderRepository -->
<g id="edge30" class="edge">
<title>com.example.demo.query.order.OrderQueryService#findOrderDetail(java.lang.String)&#45;&gt;com.example.demo.domain.model.order.OrderRepository</title>
<path fill="none" stroke="black" d="M396.51,-318.17C453.6,-322.69 526.41,-329.39 590.87,-338.25 622.82,-342.64 657.36,-348.53 688.89,-354.35"/>
<polygon fill="black" stroke="black" points="687.94,-357.74 698.41,-356.13 689.23,-350.85 687.94,-357.74"/>
</g>
<!-- com.example.demo.query.order.OrderQueryService#findOrdersByStatus(java.lang.String) -->
<g id="node13" class="node">
<title>com.example.demo.query.order.OrderQueryService#findOrdersByStatus(java.lang.String)</title>
<g id="a_node13"><a xlink:href="./application.html#com.example.demo.query.order.OrderQueryService" xlink:title="OrderQueryService.findOrdersByStatus(String)">
<ellipse fill="lemonchiffon" stroke="black" cx="295.43" cy="-473.25" rx="273.49" ry="18"/>
<text xml:space="preserve" text-anchor="middle" x="295.43" y="-467.07" font-family="Times New Roman,serif" font-size="14.00">ステータスで絞り込んだ注文サマリー一覧を取得する</text>
</a>
</g>
</g>
<!-- com.example.demo.query.order.OrderQueryService#findOrdersByStatus(java.lang.String)&#45;&gt;com.example.demo.domain.model.order.OrderStatus -->
<g id="edge33" class="edge">
<title>com.example.demo.query.order.OrderQueryService#findOrdersByStatus(java.lang.String)&#45;&gt;com.example.demo.domain.model.order.OrderStatus</title>
<path fill="none" stroke="black" d="M450.98,-488.45C656.72,-501.62 1026.24,-500.18 1298.62,-358.25 1349.78,-331.59 1401.68,-289.1 1432.95,-261.44"/>
<polygon fill="black" stroke="black" points="1434.95,-264.34 1440.07,-255.06 1430.29,-259.12 1434.95,-264.34"/>
</g>
<!-- com.example.demo.query.order.OrderQueryService#findOrdersByStatus(java.lang.String)&#45;&gt;com.example.demo.domain.model.order.Order -->
<g id="edge31" class="edge">
<title>com.example.demo.query.order.OrderQueryService#findOrdersByStatus(java.lang.String)&#45;&gt;com.example.demo.domain.model.order.Order</title>
<path fill="none" stroke="black" d="M568.48,-471.87C722.51,-467.97 898.43,-457.36 970.62,-430.25 1034.21,-406.36 1093.82,-352.11 1126.25,-318.89"/>
<polygon fill="black" stroke="black" points="1128.44,-321.66 1132.84,-312.02 1123.39,-316.81 1128.44,-321.66"/>
</g>
<!-- com.example.demo.query.order.OrderQueryService#findOrdersByStatus(java.lang.String)&#45;&gt;com.example.demo.domain.model.order.OrderRepository -->
<g id="edge32" class="edge">
<title>com.example.demo.query.order.OrderQueryService#findOrdersByStatus(java.lang.String)&#45;&gt;com.example.demo.domain.model.order.OrderRepository</title>
<path fill="none" stroke="black" d="M499.31,-460.95C530.16,-457.27 561.49,-452.48 590.87,-446.25 642.11,-435.39 698.3,-415.86 739.16,-400.19"/>
<polygon fill="black" stroke="black" points="740.27,-403.51 748.33,-396.64 737.74,-396.99 740.27,-403.51"/>
</g>
<!-- com.example.demo.query.order.OrderQueryService#toDetailView(com.example.demo.domain.model.order.Order) -->
<g id="node14" class="node">
<title>com.example.demo.query.order.OrderQueryService#toDetailView(com.example.demo.domain.model.order.Order)</title>
<g id="a_node14"><a xlink:href="./application.html#com.example.demo.query.order.OrderQueryService" xlink:title="OrderQueryService.toDetailView(Order)">
<ellipse fill="lemonchiffon" stroke="black" cx="295.43" cy="-124.25" rx="190.05" ry="18"/>
<text xml:space="preserve" text-anchor="middle" x="295.43" y="-119.2" font-family="Times New Roman,serif" font-size="14.00">Order集約をOrderDetailViewに変換する</text>
</a>
</g>
</g>
<!-- com.example.demo.query.order.OrderQueryService#toDetailView(com.example.demo.domain.model.order.Order)&#45;&gt;com.example.demo.domain.model.order.OrderStatus -->
<g id="edge35" class="edge">
<title>com.example.demo.query.order.OrderQueryService#toDetailView(com.example.demo.domain.model.order.Order)&#45;&gt;com.example.demo.domain.model.order.OrderStatus</title>
<path fill="none" stroke="black" d="M476.34,-130.03C612.34,-135.46 803.54,-145.34 970.62,-162.25 1095.23,-174.86 1236.62,-196.32 1335.71,-212.54"/>
<polygon fill="black" stroke="black" points="1335.05,-215.97 1345.48,-214.14 1336.18,-209.07 1335.05,-215.97"/>
</g>
<!-- com.example.demo.query.order.OrderQueryService#toDetailView(com.example.demo.domain.model.order.Order)&#45;&gt;com.example.demo.domain.model.order.Order -->
<g id="edge34" class="edge">
<title>com.example.demo.query.order.OrderQueryService#toDetailView(com.example.demo.domain.model.order.Order)&#45;&gt;com.example.demo.domain.model.order.Order</title>
<path fill="none" stroke="black" d="M426.39,-137.63C563.15,-153.3 784.03,-183.14 970.62,-229.25 1011.53,-239.36 1056.35,-254.68 1091.15,-267.56"/>
<polygon fill="black" stroke="black" points="1089.6,-270.72 1100.19,-270.94 1092.05,-264.16 1089.6,-270.72"/>
</g>
<!-- com.example.demo.query.order.OrderQueryService#toSummary(com.example.demo.domain.model.order.Order) -->
<g id="node15" class="node">
<title>com.example.demo.query.order.OrderQueryService#toSummary(com.example.demo.domain.model.order.Order)</title>
<g id="a_node15"><a xlink:href="./application.html#com.example.demo.query.order.OrderQueryService" xlink:title="OrderQueryService.toSummary(Order)">
<ellipse fill="lemonchiffon" stroke="black" cx="295.43" cy="-40.25" rx="184.93" ry="18"/>
<text xml:space="preserve" text-anchor="middle" x="295.43" y="-35.2" font-family="Times New Roman,serif" font-size="14.00">Order集約をOrderSummaryに変換する</text>
</a>
</g>
</g>
<!-- com.example.demo.query.order.OrderQueryService#toSummary(com.example.demo.domain.model.order.Order)&#45;&gt;com.example.demo.domain.model.order.OrderStatus -->
<g id="edge37" class="edge">
<title>com.example.demo.query.order.OrderQueryService#toSummary(com.example.demo.domain.model.order.Order)&#45;&gt;com.example.demo.domain.model.order.OrderStatus</title>
<path fill="none" stroke="black" d="M471.43,-46.07C673.82,-56.33 1015.49,-84.59 1298.62,-162.25 1339.69,-173.52 1383.76,-193.38 1415.82,-209.39"/>
<polygon fill="black" stroke="black" points="1413.93,-212.36 1424.44,-213.75 1417.1,-206.11 1413.93,-212.36"/>
</g>
<!-- com.example.demo.query.order.OrderQueryService#toSummary(com.example.demo.domain.model.order.Order)&#45;&gt;com.example.demo.domain.model.order.Order -->
<g id="edge36" class="edge">
<title>com.example.demo.query.order.OrderQueryService#toSummary(com.example.demo.domain.model.order.Order)&#45;&gt;com.example.demo.domain.model.order.Order</title>
<path fill="none" stroke="black" d="M456.31,-49.42C596.57,-62.01 803.62,-91.82 970.62,-162.25 1029.69,-187.16 1088.33,-234.08 1122.21,-263.94"/>
<polygon fill="black" stroke="black" points="1119.77,-266.45 1129.55,-270.5 1124.43,-261.23 1119.77,-266.45"/>
</g>
<!-- com.example.demo.domain.model.menu.MenuItem&#45;&gt;com.example.demo.domain.model.menu.MenuCategory -->
<g id="edge4" class="edge">
<title>com.example.demo.domain.model.menu.MenuItem&#45;&gt;com.example.demo.domain.model.menu.MenuCategory</title>
<path fill="none" stroke="black" d="M1290.39,-724.08C1301.28,-725.42 1312.29,-726.78 1323.2,-728.12"/>
<polygon fill="black" stroke="black" points="1322.67,-731.58 1333.02,-729.33 1323.53,-724.64 1322.67,-731.58"/>
</g>
<!-- com.example.demo.domain.model.menu.MenuItemRepository&#45;&gt;com.example.demo.domain.model.menu.MenuCategory -->
<g id="edge6" class="edge">
<title>com.example.demo.domain.model.menu.MenuItemRepository&#45;&gt;com.example.demo.domain.model.menu.MenuCategory</title>
<path fill="none" stroke="black" d="M970.93,-630.39C1068.18,-637.84 1191.52,-652.08 1298.62,-679.25 1337.72,-689.17 1379.9,-706.34 1411.66,-720.68"/>
<polygon fill="black" stroke="black" points="1410.08,-723.8 1420.63,-724.78 1413,-717.44 1410.08,-723.8"/>
</g>
<!-- com.example.demo.domain.model.menu.MenuItemRepository&#45;&gt;com.example.demo.domain.model.menu.MenuItem -->
<g id="edge2" class="edge">
<title>com.example.demo.domain.model.menu.MenuItemRepository&#45;&gt;com.example.demo.domain.model.menu.MenuItem</title>
<path fill="none" stroke="black" d="M910.35,-642.12C930.47,-646.16 951.22,-650.6 970.62,-655.25 1005.89,-663.71 1044.59,-674.6 1077.12,-684.23"/>
<polygon fill="black" stroke="black" points="1075.87,-687.51 1086.45,-687.01 1077.87,-680.8 1075.87,-687.51"/>
</g>
<!-- com.example.demo.domain.model.order.Order&#45;&gt;com.example.demo.domain.model.order.OrderStatus -->
<g id="edge5" class="edge">
<title>com.example.demo.domain.model.order.Order&#45;&gt;com.example.demo.domain.model.order.OrderStatus</title>
<path fill="none" stroke="black" d="M1261.17,-271.39C1287.86,-266.47 1316.61,-261.16 1343.8,-256.14"/>
<polygon fill="black" stroke="black" points="1344.25,-259.62 1353.45,-254.36 1342.98,-252.73 1344.25,-259.62"/>
</g>
<!-- com.example.demo.domain.model.order.OrderRepository&#45;&gt;com.example.demo.domain.model.order.OrderStatus -->
<g id="edge1" class="edge">
<title>com.example.demo.domain.model.order.OrderRepository&#45;&gt;com.example.demo.domain.model.order.OrderStatus</title>
<path fill="none" stroke="black" d="M936.38,-373.99C1038.19,-369.12 1179.6,-355.58 1298.62,-319.25 1343.59,-305.52 1390.84,-279.58 1422.96,-259.96"/>
<polygon fill="black" stroke="black" points="1424.48,-263.13 1431.13,-254.88 1420.79,-257.18 1424.48,-263.13"/>
</g>
<!-- com.example.demo.domain.model.order.OrderRepository&#45;&gt;com.example.demo.domain.model.order.Order -->
<g id="edge3" class="edge">
<title>com.example.demo.domain.model.order.OrderRepository&#45;&gt;com.example.demo.domain.model.order.Order</title>
<path fill="none" stroke="black" d="M910.35,-356.38C930.47,-352.34 951.22,-347.9 970.62,-343.25 1005.89,-334.79 1044.59,-323.9 1077.12,-314.27"/>
<polygon fill="black" stroke="black" points="1077.87,-317.7 1086.45,-311.49 1075.87,-310.99 1077.87,-317.7"/>
</g>
</g>
</svg>
