<?xml version="1.0" encoding="UTF-8" standalone="no"?>
<!DOCTYPE svg PUBLIC "-//W3C//DTD SVG 1.1//EN"
 "http://www.w3.org/Graphics/SVG/1.1/DTD/svg11.dtd">
<!-- Generated by graphviz version 14.1.2 (20260124.0452)
 -->
<!-- Title: パッケージ関連図 Pages: 1 -->
<svg width="280pt" height="160pt"
 viewBox="0.00 0.00 280.00 160.00" xmlns="http://www.w3.org/2000/svg" xmlns:xlink="http://www.w3.org/1999/xlink">
<g id="graph0" class="graph" transform="scale(1 1) rotate(0) translate(4 155.75)">
<title>パッケージ関連図</title>
<polygon fill="white" stroke="none" points="-4,4 -4,-155.75 275.5,-155.75 275.5,4 -4,4"/>
<text xml:space="preserve" text-anchor="middle" x="135.75" y="-4.95" font-family="Times New Roman,serif" font-size="14.00">パッケージ関連図</text>
<!-- summary -->
<g id="node1" class="node">
<title>summary</title>
<polygon fill="none" stroke="black" points="193,-151.75 0,-151.75 0,-94.25 199,-94.25 199,-145.75 193,-151.75"/>
<polyline fill="none" stroke="black" points="193,-151.75 193,-145.75"/>
<polyline fill="none" stroke="black" points="199,-145.75 193,-145.75"/>
<text xml:space="preserve" text-anchor="start" x="8" y="-134.45" font-family="Times New Roman,serif" font-size="14.00">root: com.example.demo.domain</text>
<text xml:space="preserve" text-anchor="start" x="8" y="-117.95" font-family="Times New Roman,serif" font-size="14.00">パッケージ数: 2</text>
<text xml:space="preserve" text-anchor="start" x="8" y="-101.45" font-family="Times New Roman,serif" font-size="14.00">関連数: 1</text>
</g>
<!-- com.example.demo.domain.model -->
<g id="node2" class="node">
<title>com.example.demo.domain.model</title>
<g id="a_node2"><a xlink:href="./domain.html#com.example.demo.domain.model" xlink:title="model">
<polygon fill="#eedd82" stroke="black" points="271.5,-141 217.5,-141 217.5,-105 271.5,-105 271.5,-141"/>
<text xml:space="preserve" text-anchor="middle" x="244.5" y="-117.95" font-family="Times New Roman,serif" font-size="14.00">model</text>
</a>
</g>
</g>
<!-- com.example.demo.domain.type -->
<g id="node3" class="node">
<title>com.example.demo.domain.type</title>
<g id="a_node3"><a xlink:href="./domain.html#com.example.demo.domain.type" xlink:title="type">
<polygon fill="#eedd82" stroke="black" points="271.5,-58.25 217.5,-58.25 217.5,-22.25 271.5,-22.25 271.5,-58.25"/>
<text xml:space="preserve" text-anchor="middle" x="244.5" y="-35.2" font-family="Times New Roman,serif" font-size="14.00">type</text>
</a>
</g>
</g>
<!-- com.example.demo.domain.model&#45;&gt;com.example.demo.domain.type -->
<g id="edge1" class="edge">
<title>com.example.demo.domain.model&#45;&gt;com.example.demo.domain.type</title>
<path fill="none" stroke="black" d="M244.5,-104.88C244.5,-94.77 244.5,-81.73 244.5,-70.08"/>
<polygon fill="black" stroke="black" points="248,-70.14 244.5,-60.14 241,-70.14 248,-70.14"/>
</g>
</g>
</svg>
