<?xml version="1.0" encoding="UTF-8" standalone="no"?>
<!DOCTYPE svg PUBLIC "-//W3C//DTD SVG 1.1//EN"
 "http://www.w3.org/Graphics/SVG/1.1/DTD/svg11.dtd">
<!-- Generated by graphviz version 14.1.2 (20260124.0452)
 -->
<!-- Title: パッケージ関連図 Pages: 1 -->
<svg width="307pt" height="262pt"
 viewBox="0.00 0.00 307.00 262.00" xmlns="http://www.w3.org/2000/svg" xmlns:xlink="http://www.w3.org/1999/xlink">
<g id="graph0" class="graph" transform="scale(1 1) rotate(0) translate(4 257.5)">
<title>パッケージ関連図</title>
<polygon fill="white" stroke="none" points="-4,4 -4,-257.5 302.5,-257.5 302.5,4 -4,4"/>
<text xml:space="preserve" text-anchor="middle" x="149.25" y="-4.95" font-family="Times New Roman,serif" font-size="14.00">パッケージ関連図</text>
<g id="clust1" class="cluster">
<title>cluster_com.example.demo.domain.model</title>
<polygon fill="lemonchiffon" stroke="#eedd82" stroke-width="2" points="209.5,-86.25 209.5,-245.5 279.5,-245.5 279.5,-86.25 209.5,-86.25"/>
<text xml:space="preserve" text-anchor="middle" x="244.5" y="-228.2" font-family="Times New Roman,serif" font-size="14.00">model</text>
</g>
<!-- summary -->
<g id="node1" class="node">
<title>summary</title>
<polygon fill="none" stroke="black" points="193,-223.75 0,-223.75 0,-166.25 199,-166.25 199,-217.75 193,-223.75"/>
<polyline fill="none" stroke="black" points="193,-223.75 193,-217.75"/>
<polyline fill="none" stroke="black" points="199,-217.75 193,-217.75"/>
<text xml:space="preserve" text-anchor="start" x="8" y="-206.45" font-family="Times New Roman,serif" font-size="14.00">root: com.example.demo.domain</text>
<text xml:space="preserve" text-anchor="start" x="8" y="-189.95" font-family="Times New Roman,serif" font-size="14.00">パッケージ数: 3</text>
<text xml:space="preserve" text-anchor="start" x="8" y="-173.45" font-family="Times New Roman,serif" font-size="14.00">関連数: 3</text>
</g>
<!-- com.example.demo.domain.model.order -->
<g id="node2" class="node">
<title>com.example.demo.domain.model.order</title>
<g id="a_node2"><a xlink:href="./domain.html#com.example.demo.domain.model.order" xlink:title="order">
<polygon fill="#eedd82" stroke="black" points="271.5,-213 217.5,-213 217.5,-177 271.5,-177 271.5,-213"/>
<text xml:space="preserve" text-anchor="middle" x="244.5" y="-189.95" font-family="Times New Roman,serif" font-size="14.00">order</text>
</a>
</g>
</g>
<!-- com.example.demo.domain.model.menu -->
<g id="node3" class="node">
<title>com.example.demo.domain.model.menu</title>
<g id="a_node3"><a xlink:href="./domain.html#com.example.demo.domain.model.menu" xlink:title="menu">
<polygon fill="#eedd82" stroke="black" points="271.5,-130.25 217.5,-130.25 217.5,-94.25 271.5,-94.25 271.5,-130.25"/>
<text xml:space="preserve" text-anchor="middle" x="244.5" y="-107.2" font-family="Times New Roman,serif" font-size="14.00">menu</text>
</a>
</g>
</g>
<!-- com.example.demo.domain.model.order&#45;&gt;com.example.demo.domain.model.menu -->
<g id="edge1" class="edge">
<title>com.example.demo.domain.model.order&#45;&gt;com.example.demo.domain.model.menu</title>
<path fill="none" stroke="black" d="M244.5,-176.88C244.5,-166.77 244.5,-153.73 244.5,-142.08"/>
<polygon fill="black" stroke="black" points="248,-142.14 244.5,-132.14 241,-142.14 248,-142.14"/>
</g>
<!-- com.example.demo.domain.type -->
<g id="node4" class="node">
<title>com.example.demo.domain.type</title>
<g id="a_node4"><a xlink:href="./domain.html#com.example.demo.domain.type" xlink:title="type">
<polygon fill="#eedd82" stroke="black" points="298.5,-58.25 244.5,-58.25 244.5,-22.25 298.5,-22.25 298.5,-58.25"/>
<text xml:space="preserve" text-anchor="middle" x="271.5" y="-35.2" font-family="Times New Roman,serif" font-size="14.00">type</text>
</a>
</g>
</g>
<!-- com.example.demo.domain.model.order&#45;&gt;com.example.demo.domain.type -->
<g id="edge2" class="edge">
<title>com.example.demo.domain.model.order&#45;&gt;com.example.demo.domain.type</title>
<path fill="none" stroke="black" d="M257.55,-176.67C265.93,-164.41 276.04,-147.21 280.5,-130.25 285.72,-110.38 283.15,-87.29 279.44,-69.61"/>
<polygon fill="black" stroke="black" points="282.89,-69 277.18,-60.07 276.07,-70.6 282.89,-69"/>
</g>
<!-- com.example.demo.domain.model.menu&#45;&gt;com.example.demo.domain.type -->
<g id="edge3" class="edge">
<title>com.example.demo.domain.model.menu&#45;&gt;com.example.demo.domain.type</title>
<path fill="none" stroke="black" d="M251.17,-93.95C254.08,-86.4 257.57,-77.37 260.82,-68.93"/>
<polygon fill="black" stroke="black" points="264.02,-70.36 264.36,-59.77 257.49,-67.84 264.02,-70.36"/>
</g>
</g>
</svg>
